<svg width="12" height="12" fill="none" xmlns="http://www.w3.org/2000/svg"><path fill="#1E1E1E" d="M0 0h12v12H0z"/><g clip-path="url(#clip0_0_1)"><path fill="#fff" d="M-296-7766h1440v9532H-296z"/><path d="M124-26c0 82.843-67.157 150-150 150S-176 56.843-176-26s67.157-150 150-150 150 67.157 150 150zm-270 0c0 66.274 53.726 120 120 120S94 40.274 94-26 40.274-146-26-146-146-92.274-146-26z" fill="#E5ECFF"/><path d="M-26-176A150.002 150.002 0 0198.72 57.336a150.001 150.001 0 01-263.302-25.934 150 150 0 0163.583-187.306l15 25.981a119.997 119.997 0 00-50.867 149.845A120 120 0 10-26-146v-30z" fill="#04F"/><path d="M6 9.514l2.767 1.673a.665.665 0 00.993-.72L9.027 7.32l2.446-2.12a.665.665 0 00-.38-1.167l-3.22-.273L6.613.787a.667.667 0 00-1.226 0l-1.26 2.966-3.22.274a.665.665 0 00-.38 1.167l2.446 2.12-.733 3.146a.665.665 0 00.993.72L6 9.514z" fill="#E5ECFF"/><g clip-path="url(#clip1_0_1)"><path d="M6 9.514l2.767 1.673a.665.665 0 00.993-.72L9.027 7.32l2.446-2.12a.665.665 0 00-.38-1.167l-3.22-.273L6.613.787a.667.667 0 00-1.226 0l-1.26 2.966-3.22.274a.665.665 0 00-.38 1.167l2.446 2.12-.733 3.146a.665.665 0 00.993.72L6 9.514z" fill="#04F"/></g></g><defs><clipPath id="clip0_0_1"><path fill="#fff" transform="translate(-296 -7766)" d="M0 0h1440v9532H0z"/></clipPath><clipPath id="clip1_0_1"><path fill="#fff" d="M0 0h4v11H0z"/></clipPath></defs></svg>