<svg width="88" height="88" viewBox="0 0 88 88" fill="none" xmlns="http://www.w3.org/2000/svg">
<g filter="url(#filter0_d_482_34475)">
<rect x="20" y="10" width="48" height="48" rx="24" fill="white"/>
<g clip-path="url(#clip0_482_34475)">
<path d="M34.3203 32.6969L34.4193 32.7109C34.3316 33.3297 34.3316 34.6701 34.4193 35.289C34.7256 37.4287 35.658 39.3025 37.18 40.8198L37.1802 40.82C39.0271 42.6716 41.3923 43.6547 44 43.6547C46.6077 43.6547 48.9682 42.6716 50.8199 40.8199L50.82 40.8198C52.3466 39.2978 53.2743 37.4288 53.5807 35.289C53.6684 34.6702 53.6684 33.3297 53.5807 32.7109C53.2743 30.5712 52.3466 28.7021 50.82 27.1802L50.8198 27.18C49.2976 25.6531 47.3819 24.7024 45.2899 24.4241C42.2693 24.0251 39.3378 25.0223 37.1801 27.1801L37.18 27.1802C35.658 28.6975 34.7256 30.5713 34.4193 32.711L34.3203 32.6969ZM34.3203 32.6969C34.2313 33.325 34.2313 34.675 34.3203 35.3031L37.1094 27.1094C35.5719 28.6422 34.6297 30.5359 34.3203 32.6969ZM42.8392 22.6367L42.8399 22.6366C42.9263 22.6264 43.4207 22.6125 43.9382 22.6078H43.9383C45.8613 22.5936 47.3579 22.9345 49.0361 23.7617C50.284 24.3715 51.2449 25.072 52.1858 26.0413L52.1859 26.0413C53.0744 26.9582 53.704 27.8528 54.2664 29.0108C55.0562 30.6282 55.3969 32.1432 55.3969 34C55.3969 35.8568 55.0515 37.3812 54.2664 38.9892L54.2664 38.9892C53.1176 41.3389 51.3342 43.1223 48.9892 44.2664L48.9453 44.1765L48.9892 44.2664C47.826 44.8338 46.7468 45.1556 45.4193 45.3304L45.4191 45.3304C44.5796 45.4395 42.8865 45.4018 42.0841 45.2594L42.084 45.2594C39.5931 44.8151 37.4504 43.6706 35.7339 41.8737L35.7339 41.8737C34.1543 40.2184 33.1565 38.2317 32.736 35.9068H32.736L32.7359 35.9065C32.6406 35.3678 32.6266 35.1449 32.6266 34C32.6266 32.855 32.6406 32.6322 32.7359 32.0935L32.736 32.0932C33.3079 28.917 35.0339 26.2635 37.663 24.4998L37.6631 24.4997C39.1962 23.4729 40.8332 22.8869 42.8392 22.6367Z" fill="#0044FF" stroke="#0044FF" stroke-width="0.2"/>
<path d="M43.6029 27.6296L43.6029 27.6296C43.4401 27.7122 43.3217 27.7952 43.2509 27.9434C43.1842 28.083 43.1661 28.2688 43.1591 28.5361C43.1591 28.5362 43.1591 28.5363 43.1591 28.5365L43.2591 28.5391C43.245 28.9656 43.2544 29.0219 43.3528 29.1719L43.6029 27.6296ZM43.6029 27.6296L43.6041 27.629C43.7347 27.5649 43.8634 27.5309 43.9962 27.5309C44.1288 27.5309 44.2594 27.5649 44.3939 27.6283L44.3939 27.6283L44.3949 27.6288C44.5606 27.709 44.6801 27.8142 44.754 27.9768C44.8253 28.1334 44.8497 28.3339 44.8497 28.5953C44.8497 28.7743 44.8465 28.8947 44.8293 28.9883C44.8111 29.0882 44.7774 29.1561 44.725 29.2322L43.6029 27.6296Z" fill="#0044FF" stroke="#0044FF" stroke-width="0.2"/>
<path d="M43.1654 30.9156L43.1666 30.8156C43.4742 30.8191 43.7078 30.8221 43.8878 30.83C44.0668 30.8379 44.1994 30.8509 44.3028 30.8766C44.4098 30.9032 44.4876 30.9438 44.5554 31.0062C44.6185 31.0642 44.6701 31.1389 44.7274 31.2222L44.729 31.2245L44.729 31.2245L44.7299 31.2258L44.833 31.3805L44.8499 31.4058L44.8498 31.4362L44.8404 35.683L44.8404 35.6831L44.8403 35.7264C44.8334 37.7784 44.8298 38.8319 44.8164 39.3872C44.8097 39.6655 44.8004 39.824 44.786 39.9215C44.7786 39.9709 44.7694 40.0092 44.7563 40.0416C44.7428 40.0749 44.727 40.0975 44.7129 40.1158C44.6412 40.2155 44.5194 40.3037 44.396 40.3663C44.272 40.4293 44.1294 40.475 44.0092 40.475C43.7667 40.475 43.5212 40.3574 43.3412 40.1672L43.3409 40.1668L43.2003 40.0168L43.1734 39.9881L43.1733 39.9488L43.1592 36.2035L43.1592 36.2034L43.1501 32.5558L42.5727 32.5437L42.5725 32.5437C42.277 32.5367 42.0971 32.5309 41.9773 32.5147C41.8505 32.4976 41.7801 32.4676 41.7076 32.4105C41.1729 32.0097 41.2052 31.2194 41.7985 30.9201L41.7988 30.9199C41.8507 30.894 41.8985 30.8708 41.9569 30.8534C42.0156 30.8359 42.0811 30.8253 42.1703 30.8188C42.3456 30.8061 42.6301 30.8086 43.1667 30.8156L43.1654 30.9156ZM43.1654 30.9156C42.0873 30.9016 42.0498 30.9062 41.8436 31.0094L43.4139 40.0984C43.5779 40.2719 43.7983 40.375 44.0092 40.375C44.2061 40.375 44.5154 40.2203 44.6326 40.0562C44.7261 39.9348 44.7264 39.8459 44.7403 35.7228L44.7404 35.6828L44.7498 31.4359L44.6467 31.2812C44.4076 30.9344 44.3983 30.9297 43.1654 30.9156Z" fill="#0044FF" stroke="#0044FF" stroke-width="0.2"/>
</g>
</g>
<defs>
<filter id="filter0_d_482_34475" x="0" y="0" width="88" height="88" filterUnits="userSpaceOnUse" color-interpolation-filters="sRGB">
<feFlood flood-opacity="0" result="BackgroundImageFix"/>
<feColorMatrix in="SourceAlpha" type="matrix" values="0 0 0 0 0 0 0 0 0 0 0 0 0 0 0 0 0 0 127 0" result="hardAlpha"/>
<feOffset dy="10"/>
<feGaussianBlur stdDeviation="10"/>
<feComposite in2="hardAlpha" operator="out"/>
<feColorMatrix type="matrix" values="0 0 0 0 0 0 0 0 0 0 0 0 0 0 0 0 0 0 0.05 0"/>
<feBlend mode="normal" in2="BackgroundImageFix" result="effect1_dropShadow_482_34475"/>
<feBlend mode="normal" in="SourceGraphic" in2="effect1_dropShadow_482_34475" result="shape"/>
</filter>
<clipPath id="clip0_482_34475">
<rect width="24" height="24" fill="white" transform="translate(32 22)"/>
</clipPath>
</defs>
</svg>
