<svg width="88" height="88" viewBox="0 0 88 88" fill="none" xmlns="http://www.w3.org/2000/svg">
<g filter="url(#filter0_d_482_34429)">
<rect x="20" y="10" width="48" height="48" rx="24" fill="white"/>
<g clip-path="url(#clip0_482_34429)">
<path d="M37.9998 22.1078C37.8639 22.1781 37.742 22.2953 37.6529 22.4359C37.5264 22.6422 37.517 22.6984 37.4936 23.2422L37.4701 23.8281H36.8514C35.792 23.8281 34.9998 24.0297 34.2264 24.5031C33.2279 25.1031 32.5154 26.0313 32.1545 27.1844L32.0232 27.6016L32.0092 34.7031C31.9998 39.9438 32.0092 41.8984 32.0514 42.1563C32.1779 42.9859 32.6139 43.8672 33.2092 44.5047C33.8232 45.1609 34.4842 45.5734 35.3514 45.8453L35.7732 45.9766H43.9764H52.1795L52.5498 45.8688C53.0654 45.7188 53.5061 45.5266 53.9045 45.2688C54.3732 44.9688 55.0764 44.2375 55.3576 43.7688C55.6248 43.3141 55.8779 42.6344 55.9482 42.1563C55.9904 41.8984 55.9998 39.9438 55.9904 34.7031L55.9764 27.6016L55.8451 27.1797C55.3014 25.4453 53.9092 24.2031 52.1701 23.8984C51.9498 23.8609 51.4904 23.8281 51.1482 23.8281H50.5295L50.5061 23.2422C50.4826 22.6984 50.4732 22.6422 50.3467 22.4359C50.1498 22.1172 49.8826 21.9859 49.4795 22.0094C49.1279 22.0281 48.917 22.1406 48.7295 22.4125C48.6264 22.5625 48.617 22.6328 48.6029 23.2047L48.5842 23.8281H43.9998H39.4154L39.3967 23.2047C39.3826 22.6328 39.3732 22.5625 39.2701 22.4125C39.0826 22.1406 38.8717 22.0281 38.5201 22.0094C38.2623 21.9953 38.1732 22.0141 37.9998 22.1078ZM37.4842 26.6406C37.4842 27.7375 37.5217 27.9391 37.7842 28.2109C38.2248 28.6703 38.9842 28.5766 39.2982 28.0234C39.4014 27.8453 39.4061 27.7844 39.4061 26.7906V25.75H43.9998H48.5936V26.7906C48.5936 27.7844 48.5982 27.8453 48.7014 28.0234C49.0154 28.5766 49.7748 28.6703 50.2154 28.2109C50.4779 27.9391 50.5154 27.7375 50.5154 26.6406V25.75H51.092C52.2123 25.75 52.9623 26.0828 53.5248 26.8328C53.9373 27.3859 54.0686 27.8078 54.1107 28.7313L54.1389 29.3594H43.9998H33.8607L33.8889 28.7313C33.917 28.0609 34.0014 27.6438 34.1795 27.3016C34.3436 26.9734 34.6389 26.6031 34.9107 26.3781C35.4779 25.9141 35.9795 25.7547 36.8889 25.7547L37.4842 25.75V26.6406ZM54.1154 36.5406C54.1014 41.4859 54.092 41.8188 54.0123 42.0625C53.7639 42.8125 53.2623 43.4406 52.6482 43.7594C51.992 44.1016 52.6107 44.0781 43.9998 44.0781C35.3889 44.0781 36.0076 44.1016 35.3514 43.7594C34.7373 43.4406 34.2357 42.8125 33.9873 42.0625C33.9076 41.8188 33.8982 41.4859 33.8842 36.5406L33.8701 31.2813H43.9998H54.1295L54.1154 36.5406Z" fill="#0044FF"/>
<path d="M37.1556 34.0515C36.6915 34.2344 36.4525 34.9 36.6821 35.3547C36.804 35.589 37.0665 35.814 37.2587 35.8515C37.3431 35.8656 37.9431 35.875 38.5946 35.8656L39.7712 35.8515L39.954 35.7062C40.1884 35.5234 40.3431 35.214 40.3431 34.9375C40.3384 34.5625 40.0853 34.1687 39.7665 34.0515C39.5978 33.9859 37.3196 33.9859 37.1556 34.0515Z" fill="#0044FF"/>
<path d="M42.6634 34.0656C42.4853 34.1453 42.2368 34.4031 42.1759 34.5765C42.1056 34.7594 42.1103 35.1437 42.1853 35.3265C42.2743 35.5328 42.6025 35.8187 42.79 35.8515C42.8743 35.8656 43.4743 35.875 44.1259 35.8656L45.3025 35.8515L45.4853 35.7062C45.9962 35.2984 45.9962 34.5765 45.4853 34.1687L45.3025 34.0234L44.0556 34.014C43.0759 34.0047 42.7712 34.014 42.6634 34.0656Z" fill="#0044FF"/>
<path d="M48.1954 34.0656C48.0079 34.15 47.8204 34.3562 47.7313 34.5719C47.5672 34.9609 47.6985 35.4297 48.0454 35.7062L48.2282 35.8515L49.4047 35.8656C50.0563 35.875 50.6563 35.8656 50.7407 35.8515C50.9329 35.814 51.1954 35.5844 51.3219 35.3453C51.4672 35.0594 51.4297 34.6281 51.2376 34.3937C50.9282 34.014 50.9844 34.0234 49.5876 34.014C48.6126 34.0047 48.3032 34.014 48.1954 34.0656Z" fill="#0044FF"/>
<path d="M37.2825 39.55C37.0294 39.6203 36.7575 39.85 36.6591 40.0797C36.5653 40.3 36.5747 40.675 36.6825 40.8859C36.8044 41.1203 37.0669 41.3453 37.2591 41.3828C37.3435 41.3969 37.9435 41.4062 38.595 41.3969L39.7716 41.3828L39.9544 41.2375C40.1888 41.0547 40.3435 40.7453 40.3435 40.4687C40.3388 40.0937 40.0903 39.7094 39.7575 39.5734C39.5466 39.4844 37.5778 39.4656 37.2825 39.55Z" fill="#0044FF"/>
<path d="M42.8656 39.5266C42.6406 39.5734 42.4016 39.7375 42.2609 39.9438C42.1672 40.0844 42.1484 40.1688 42.1484 40.4734C42.1484 40.8063 42.1578 40.8484 42.2937 41.0125C42.5984 41.3922 42.5469 41.3828 43.9297 41.3969C45.0781 41.4109 45.1812 41.4063 45.3453 41.3172C45.5703 41.2047 45.7109 41.0547 45.8047 40.8344C45.9969 40.3609 45.7578 39.7656 45.2891 39.5734C45.1297 39.5031 43.1516 39.4656 42.8656 39.5266Z" fill="#0044FF"/>
<path d="M48.5704 39.5078C48.547 39.5172 48.4438 39.5359 48.3454 39.5547C48.247 39.5688 48.097 39.6484 47.9985 39.7328C47.5298 40.1453 47.5532 40.8438 48.0454 41.2375L48.2282 41.3828H49.5313H50.8345L51.0173 41.2375C51.3595 40.9656 51.5048 40.4594 51.3454 40.0797C51.2423 39.8406 50.9376 39.5969 50.661 39.5359C50.4454 39.4891 48.6923 39.4656 48.5704 39.5078Z" fill="#0044FF"/>
</g>
</g>
<defs>
<filter id="filter0_d_482_34429" x="0" y="0" width="88" height="88" filterUnits="userSpaceOnUse" color-interpolation-filters="sRGB">
<feFlood flood-opacity="0" result="BackgroundImageFix"/>
<feColorMatrix in="SourceAlpha" type="matrix" values="0 0 0 0 0 0 0 0 0 0 0 0 0 0 0 0 0 0 127 0" result="hardAlpha"/>
<feOffset dy="10"/>
<feGaussianBlur stdDeviation="10"/>
<feComposite in2="hardAlpha" operator="out"/>
<feColorMatrix type="matrix" values="0 0 0 0 0 0 0 0 0 0 0 0 0 0 0 0 0 0 0.05 0"/>
<feBlend mode="normal" in2="BackgroundImageFix" result="effect1_dropShadow_482_34429"/>
<feBlend mode="normal" in="SourceGraphic" in2="effect1_dropShadow_482_34429" result="shape"/>
</filter>
<clipPath id="clip0_482_34429">
<rect width="24" height="24" fill="white" transform="translate(32 22)"/>
</clipPath>
</defs>
</svg>
