<svg width="88" height="88" viewBox="0 0 88 88" fill="none" xmlns="http://www.w3.org/2000/svg">
<g filter="url(#filter0_d_482_34444)">
<rect x="20" y="10" width="48" height="48" rx="24" fill="white"/>
<path d="M47.6923 25.6923C46.3631 25.6923 45.1077 26.0123 43.9877 26.5785C42.8431 26.0123 41.5877 25.6923 40.3077 25.6923C35.7292 25.6923 32 29.4216 32 34C32 38.5785 35.7292 42.3077 40.3077 42.3077C41.5877 42.3077 42.8554 42 43.9877 41.4216C45.1077 41.9754 46.3631 42.3077 47.6923 42.3077C52.2708 42.3077 56 38.5785 56 34C56 29.4216 52.2708 25.6923 47.6923 25.6923ZM40.3077 40.4616C36.7385 40.4616 33.8462 37.5569 33.8462 34C33.8462 30.4431 36.7385 27.5385 40.3077 27.5385C40.9354 27.5385 41.5631 27.6369 42.1662 27.8216C40.4677 29.3477 39.3846 31.5508 39.3846 34C39.3846 36.4492 40.4677 38.6646 42.1662 40.1785C41.5631 40.3631 40.9477 40.4616 40.3077 40.4616ZM47.6923 40.4616C44.1231 40.4616 41.2308 37.5569 41.2308 34C41.2308 30.4431 44.1231 27.5385 47.6923 27.5385C51.2615 27.5385 54.1538 30.4431 54.1538 34C54.1538 37.5569 51.2492 40.4616 47.6923 40.4616Z" fill="#0044FF"/>
<path d="M49.2184 30.5292C48.3814 29.6923 47.0153 29.6923 46.1784 30.5292L44.2214 32.4861C43.3845 33.323 43.3845 34.6892 44.2214 35.5261L46.1784 37.483C46.5968 37.9015 47.1507 38.1107 47.7045 38.1107C48.2584 38.1107 48.8122 37.9015 49.2307 37.483L51.1876 35.5261C52.0245 34.6892 52.0245 33.323 51.1876 32.4861L49.2307 30.5292H49.2184ZM49.8707 34.2215L47.9138 36.1784C47.7538 36.3384 47.6307 36.3384 47.483 36.1784L45.5261 34.2215C45.4522 34.1476 45.4399 34.0492 45.4399 33.9999C45.4399 33.9507 45.4399 33.8646 45.5261 33.7784L47.483 31.8215C47.5568 31.7476 47.6553 31.7353 47.7045 31.7353C47.7537 31.7353 47.8399 31.7353 47.9261 31.8215L49.883 33.7784C49.9568 33.8523 49.9691 33.9507 49.9691 33.9999C49.9691 34.0492 49.9691 34.1353 49.883 34.2215H49.8707Z" fill="#0044FF"/>
</g>
<defs>
<filter id="filter0_d_482_34444" x="0" y="0" width="88" height="88" filterUnits="userSpaceOnUse" color-interpolation-filters="sRGB">
<feFlood flood-opacity="0" result="BackgroundImageFix"/>
<feColorMatrix in="SourceAlpha" type="matrix" values="0 0 0 0 0 0 0 0 0 0 0 0 0 0 0 0 0 0 127 0" result="hardAlpha"/>
<feOffset dy="10"/>
<feGaussianBlur stdDeviation="10"/>
<feComposite in2="hardAlpha" operator="out"/>
<feColorMatrix type="matrix" values="0 0 0 0 0 0 0 0 0 0 0 0 0 0 0 0 0 0 0.05 0"/>
<feBlend mode="normal" in2="BackgroundImageFix" result="effect1_dropShadow_482_34444"/>
<feBlend mode="normal" in="SourceGraphic" in2="effect1_dropShadow_482_34444" result="shape"/>
</filter>
</defs>
</svg>
