<svg width="88" height="88" viewBox="0 0 88 88" fill="none" xmlns="http://www.w3.org/2000/svg">
<g filter="url(#filter0_d_482_34486)">
<rect x="20" y="10" width="48" height="48" rx="24" fill="white"/>
<path d="M39.6817 22.4875L39.6817 22.4875C38.8482 22.6165 37.9706 23.1697 37.5546 23.836C37.1765 24.4332 37.0001 25.1996 37.0394 25.9999L37.0394 26.0003C37.0838 26.8377 37.3409 27.5352 37.8536 28.1958L37.8539 28.1962L37.9757 28.3514L37.0842 28.371L37.0839 28.371C36.1233 28.3949 35.9456 28.4086 35.6813 28.5071L35.681 28.5072C34.9381 28.7864 34.3455 29.3647 34.0371 30.1207L34.037 30.1208L33.9313 30.3804L33.9239 30.3984L33.9239 30.4179L33.9095 36.8314L33.9095 36.8314C33.9086 37.2499 33.9077 37.6421 33.9069 38.0097C33.9008 40.7502 33.8978 42.1241 33.9276 42.8711C33.9444 43.294 33.972 43.5248 34.0186 43.6917C34.0549 43.8214 34.1035 43.9129 34.1588 44.017C34.1749 44.0473 34.1916 44.0786 34.2086 44.1122C34.3139 44.3227 34.4952 44.549 34.7001 44.7478C34.9053 44.9468 35.1407 45.1244 35.359 45.2336L35.3595 45.2338L35.3595 45.2338C35.387 45.2474 35.4129 45.2605 35.4381 45.2734C35.5551 45.3329 35.6562 45.3843 35.8185 45.4224C36.0122 45.468 36.2939 45.4956 36.8139 45.5127C37.7607 45.5439 39.5236 45.5408 43.0434 45.5345C43.3971 45.5339 43.7686 45.5332 44.1587 45.5326L44.1587 45.5326L51.9088 45.5182L51.9251 45.5181L51.9406 45.5129L52.2531 45.4071L52.2538 45.4069V45.4069C52.9012 45.1828 53.5092 44.6711 53.8007 44.093M39.6817 22.4875L53.7115 44.048M39.6817 22.4875L39.6853 22.487M39.6817 22.4875L39.6853 22.487M53.8007 44.093L53.7115 44.048M53.8007 44.093C53.8007 44.0931 53.8007 44.0932 53.8006 44.0933L53.7115 44.048M53.8007 44.093C53.8162 44.0627 53.8312 44.0343 53.8458 44.0068C53.8999 43.9046 53.9474 43.8148 53.9828 43.685C54.0275 43.5213 54.0541 43.2937 54.071 42.8777C54.1008 42.1431 54.1005 40.7939 54.1 38.1133C54.1 37.7539 54.0999 37.3705 54.0999 36.9614C54.0999 36.7317 54.0999 36.51 54.0999 36.2961C54.1001 33.3244 54.1002 31.8516 54.0698 31.0621C54.0535 30.6396 54.0284 30.4052 53.9875 30.2389C53.953 30.0986 53.9068 30.0072 53.8538 29.9023C53.843 29.8809 53.8319 29.8589 53.8206 29.8358M53.7115 44.048C53.7545 43.9631 53.7912 43.8989 53.8224 43.832C54.0141 43.4216 53.9999 42.9151 53.9999 36.9614C53.9999 30.9732 54.0073 30.4765 53.8225 30.0665C53.796 30.0077 53.7656 29.9507 53.7307 29.8796M53.8206 29.8358C53.8207 29.836 53.8207 29.8361 53.8208 29.8363L53.7307 29.8796M53.8206 29.8358C53.8205 29.8357 53.8205 29.8356 53.8204 29.8355L53.7307 29.8796M53.8206 29.8358L53.7307 29.8796M39.6853 22.487C39.7754 22.4764 40.0947 22.472 40.3971 22.4816L39.6853 22.487ZM35.9085 30.3364C35.8316 30.4085 35.721 30.5527 35.6681 30.6585L35.5624 30.8508V36.9566L35.9085 30.3364ZM35.9085 30.3364C35.9521 30.2949 35.9864 30.2597 36.0249 30.2298C36.2495 30.0552 36.6147 30.0616 39.7835 30.0575L35.9085 30.3364ZM49.9405 28.471H49.8076L49.8951 28.371H50.028L49.9405 28.471ZM50.0845 28.3064L50.0095 28.2402L50.0848 28.3061L50.0845 28.3064ZM50.9986 25.5153L50.8989 25.5239L50.9986 25.5152C50.9986 25.5152 50.9986 25.5152 50.9986 25.5153ZM44.005 24.7002C44.0131 24.7169 44.0201 24.7326 44.0257 24.7471L44.0258 24.7471L44.0271 24.7508C44.0316 24.7639 44.0353 24.7725 44.038 24.7778C44.04 24.7818 44.0407 24.7823 44.0396 24.7808C44.039 24.7801 44.0381 24.779 44.0367 24.7777C44.0317 24.7727 44.0195 24.7631 44.0002 24.7601C43.9996 24.76 43.999 24.7599 43.9984 24.7598C43.997 24.7596 43.9957 24.7595 43.9943 24.7594C43.9763 24.758 43.9634 24.7637 43.9584 24.7665C43.9559 24.7678 43.9549 24.7687 43.9553 24.7684C43.9557 24.7681 43.9571 24.7668 43.9595 24.7642C43.9645 24.759 43.9714 24.7505 43.9806 24.7374C43.988 24.727 43.996 24.7146 44.005 24.7002ZM43.0892 28.3816L43.0636 28.0311L43.0636 28.0308C43.0089 27.2414 42.8498 26.5337 42.609 25.9591C42.3678 25.3836 42.0474 24.9478 41.6742 24.693L41.6733 24.6923C41.5369 24.5968 41.276 24.4615 41.1008 24.3969C40.8756 24.3188 40.6644 24.2772 40.366 24.2632C40.0362 24.2514 39.8129 24.2724 39.6308 24.34C39.4512 24.4067 39.3019 24.5224 39.1278 24.7198C38.7799 25.1145 38.6917 25.6752 38.8359 26.2401C38.9801 26.8045 39.3547 27.3629 39.9158 27.7386C40.5529 28.1571 41.1669 28.3185 42.3636 28.3566L42.3639 28.3566L43.0892 28.3816ZM48.349 24.3642L48.3487 24.3641C48.2422 24.3293 48.0365 24.2964 47.8268 24.2773C47.615 24.258 47.4215 24.2549 47.336 24.2711C46.6372 24.4053 46.0311 24.817 45.6469 25.4235L45.6464 25.4242C45.2212 26.0831 44.922 27.198 44.9172 28.1298V28.378L45.7425 28.3566L45.7426 28.3566C46.7079 28.3327 47.0729 28.2662 47.5944 28.038C48.7787 27.5184 49.44 26.3498 49.1725 25.3477L49.1725 25.3476C49.0346 24.8283 48.7414 24.4907 48.349 24.3642ZM43.049 42.7665L43.049 42.7659C43.0681 42.167 43.0826 39.0633 43.0826 35.8652V30.1575H39.7837C39.6661 30.1577 39.5524 30.1578 39.4425 30.158C37.8142 30.1599 37.0068 30.1609 36.5731 30.1921C36.3411 30.2088 36.2289 30.2336 36.1586 30.2651C36.0996 30.2915 36.0666 30.3232 36.0063 30.3811C35.9974 30.3898 35.9878 30.399 35.9774 30.4088L35.9769 30.4093C35.9082 30.4738 35.8049 30.6086 35.7576 30.7032L35.7576 30.7032L35.7557 30.7067L35.6624 30.8765V36.9566V43.0367L35.7557 43.2065L35.7558 43.2065L35.7568 43.2084C35.8619 43.4099 35.9906 43.5354 36.2102 43.6519L36.2102 43.6519L36.2112 43.6525C36.2657 43.6822 36.3289 43.7063 36.8045 43.7202C37.2728 43.734 38.1221 43.7388 39.7263 43.746C39.7263 43.746 39.7263 43.746 39.7263 43.746L43.0227 43.76L43.049 42.7665ZM51.7413 30.2272L51.7413 30.2272L51.7397 30.2265C51.7146 30.2159 51.6691 30.2037 51.5613 30.1936C51.4547 30.1836 51.2948 30.1761 51.0458 30.1707C50.5483 30.1599 49.7046 30.1575 48.2403 30.1575H44.977L44.9508 31.1036L44.9508 31.1041C44.9316 31.6789 44.9172 34.7825 44.9172 38.0047V43.76L48.2447 43.746L51.6428 43.7317L51.8178 43.6379C52.0381 43.5189 52.2031 43.3308 52.2807 43.1154C52.2807 43.1153 52.2808 43.1152 52.2808 43.1151L52.2808 43.115L52.2812 43.1138L52.2824 43.1091C52.2833 43.105 52.2845 43.0994 52.2857 43.0921C52.2882 43.0772 52.2907 43.0572 52.2932 43.0308C52.2983 42.9779 52.3029 42.9032 52.3071 42.8006C52.3153 42.5956 52.3215 42.2839 52.326 41.8216C52.335 40.8973 52.3374 39.375 52.3374 36.9085V30.8765L52.244 30.7067L52.2433 30.7053C52.1228 30.4777 51.9422 30.3084 51.7413 30.2272ZM43.173 23.7594L43.2437 23.6887C43.2437 23.6888 43.2438 23.6889 43.2439 23.6889L43.173 23.7594Z" fill="#0044FF" stroke="#0044FF" stroke-width="0.2"/>
</g>
<defs>
<filter id="filter0_d_482_34486" x="0" y="0" width="88" height="88" filterUnits="userSpaceOnUse" color-interpolation-filters="sRGB">
<feFlood flood-opacity="0" result="BackgroundImageFix"/>
<feColorMatrix in="SourceAlpha" type="matrix" values="0 0 0 0 0 0 0 0 0 0 0 0 0 0 0 0 0 0 127 0" result="hardAlpha"/>
<feOffset dy="10"/>
<feGaussianBlur stdDeviation="10"/>
<feComposite in2="hardAlpha" operator="out"/>
<feColorMatrix type="matrix" values="0 0 0 0 0 0 0 0 0 0 0 0 0 0 0 0 0 0 0.05 0"/>
<feBlend mode="normal" in2="BackgroundImageFix" result="effect1_dropShadow_482_34486"/>
<feBlend mode="normal" in="SourceGraphic" in2="effect1_dropShadow_482_34486" result="shape"/>
</filter>
</defs>
</svg>
