<svg width="88" height="89" viewBox="0 0 88 89" fill="none" xmlns="http://www.w3.org/2000/svg">
<g filter="url(#filter0_d_482_34505)">
<rect x="20" y="10.5" width="48" height="48" rx="24" fill="white"/>
<path d="M41.4221 23.2938C40.6158 23.4625 39.9033 24.011 39.5471 24.7329C39.2893 25.2579 39.219 25.6235 39.219 26.5094V27.25H37.8924C36.4065 27.25 36.2518 27.2735 35.6846 27.5641C35.2393 27.7985 34.7471 28.2907 34.5408 28.7172C34.2315 29.3547 34.2502 28.9188 34.2502 36.025V42.4797L34.3674 42.85C34.6627 43.7782 35.469 44.5094 36.4299 44.711C36.9221 44.8141 51.0783 44.8141 51.5705 44.711C52.5268 44.5094 53.3424 43.7735 53.633 42.8547L53.7502 42.4797V36.025C53.7502 28.8625 53.769 29.3266 53.4362 28.6938C53.1268 28.0985 52.658 27.686 51.9924 27.4094L51.6643 27.2735L50.2252 27.2594L48.7815 27.2454V26.5094C48.7815 25.6235 48.7112 25.2579 48.4533 24.7329C48.0924 24.0016 47.3799 23.4625 46.5549 23.2891C46.0908 23.1907 41.8768 23.1954 41.4221 23.2938ZM46.5127 24.8922C46.7612 25.0235 46.9768 25.2391 47.108 25.4876L47.2112 25.6797L47.2252 34.4594L47.2346 43.2344H46.7424H46.2502V41.6688C46.2502 40.2438 46.2408 40.075 46.1565 39.8079C45.833 38.7625 44.7315 38.0782 43.658 38.2563C42.7955 38.4016 42.0924 39.0016 41.844 39.8079C41.7596 40.075 41.7502 40.2438 41.7502 41.6688V43.2344H41.258H40.7658L40.7752 34.4594L40.7893 25.6797L40.8924 25.4876C41.0752 25.1454 41.3846 24.8969 41.7268 24.8079C41.8065 24.7891 42.8705 24.775 44.094 24.7797C46.2924 24.7891 46.3205 24.7891 46.5127 24.8922ZM39.219 30.3672V31.9844H38.2627C37.3862 31.9844 37.3018 31.9938 37.194 32.0782C36.9924 32.2329 36.9596 32.3875 36.9783 33.0766C36.9924 33.7094 36.9924 33.7141 37.1283 33.8547L37.269 34H38.244H39.219V34.9844V35.9688H38.3049C36.9924 35.9688 36.969 35.9875 36.969 37C36.969 38.0125 36.9924 38.0313 38.3049 38.0313H39.219V39.0157V40H38.244H37.269L37.1283 40.1454C36.9924 40.286 36.9924 40.2907 36.9783 40.9235C36.9596 41.6125 36.9924 41.7672 37.194 41.9219C37.3018 42.0063 37.3862 42.0157 38.2627 42.0157H39.219V42.625V43.2344H38.0565C36.6455 43.2344 36.5143 43.2063 36.1487 42.8454C35.9752 42.6672 35.8908 42.536 35.8393 42.3672C35.7455 42.0344 35.7408 29.9032 35.8346 29.6313C35.9846 29.2141 36.3596 28.886 36.7862 28.8016C36.8987 28.7782 37.494 28.7594 38.108 28.7547L39.219 28.75V30.3672ZM51.4533 28.8719C51.7674 29.0172 51.9502 29.1907 52.0955 29.4907L52.2268 29.7579V35.9922V42.2266L52.1143 42.475C52.0487 42.6204 51.9127 42.7985 51.7908 42.9063C51.4533 43.2063 51.2846 43.2344 49.944 43.2344H48.7815V42.625V42.0157H49.7377C50.6143 42.0157 50.6987 42.0063 50.8065 41.9219C51.008 41.7672 51.0408 41.6125 51.0221 40.9235C51.008 40.2907 51.008 40.286 50.8721 40.1454L50.7315 40H49.7565H48.7815V39.0157V38.0313H49.6955C51.008 38.0313 51.0315 38.0125 51.0315 37C51.0315 35.9875 51.008 35.9688 49.6955 35.9688H48.7815V34.9844V34H49.7565H50.7315L50.8721 33.8547L51.008 33.7141V32.9875V32.2563L50.8533 32.1204L50.7033 31.9844H49.7424H48.7815V30.3625V28.7407L50.0143 28.7594C51.1393 28.7735 51.2612 28.7829 51.4533 28.8719ZM44.2487 39.8313C44.469 39.925 44.6424 40.136 44.6987 40.375C44.7268 40.4922 44.7502 41.1719 44.7502 41.9079V43.2344H44.0002H43.2502V41.9079C43.2502 41.1719 43.2737 40.4922 43.3018 40.375C43.3533 40.1407 43.5268 39.9297 43.7424 39.8313C43.9252 39.7516 44.0612 39.7516 44.2487 39.8313Z" fill="#0044FF"/>
<path d="M42.1438 26.1437L41.9844 26.3031V26.9641C41.9844 27.6672 42.0266 27.85 42.2141 27.9531C42.275 27.9812 42.9266 28 44 28C45.0734 28 45.725 27.9812 45.7859 27.9531C45.9734 27.85 46.0156 27.6672 46.0156 26.9641V26.3031L45.8563 26.1437L45.6969 25.9844H44H42.3031L42.1438 26.1437Z" fill="#0044FF"/>
<path d="M42.2334 30.0626C42.1537 30.1095 42.06 30.1938 42.0366 30.2454C42.0084 30.297 41.985 30.6251 41.985 31.0095C41.985 32.0782 41.8912 32.0313 44.0006 32.0313C46.1147 32.0313 46.0163 32.0829 46.0163 31.0001C46.0163 29.9173 46.1147 29.9688 43.9912 29.9688C42.4819 29.9688 42.3741 29.9735 42.2334 30.0626Z" fill="#0044FF"/>
<path d="M42.2047 34.0516C42.0266 34.1547 41.9844 34.3422 41.9844 35.0359V35.6969L42.1438 35.8563L42.3031 36.0156H44H45.6969L45.8563 35.8563L46.0156 35.6969V35.0359C46.0156 34.3328 45.9734 34.15 45.7859 34.0469C45.6641 33.9813 42.3172 33.9859 42.2047 34.0516Z" fill="#0044FF"/>
</g>
<defs>
<filter id="filter0_d_482_34505" x="0" y="0.5" width="88" height="88" filterUnits="userSpaceOnUse" color-interpolation-filters="sRGB">
<feFlood flood-opacity="0" result="BackgroundImageFix"/>
<feColorMatrix in="SourceAlpha" type="matrix" values="0 0 0 0 0 0 0 0 0 0 0 0 0 0 0 0 0 0 127 0" result="hardAlpha"/>
<feOffset dy="10"/>
<feGaussianBlur stdDeviation="10"/>
<feComposite in2="hardAlpha" operator="out"/>
<feColorMatrix type="matrix" values="0 0 0 0 0 0 0 0 0 0 0 0 0 0 0 0 0 0 0.05 0"/>
<feBlend mode="normal" in2="BackgroundImageFix" result="effect1_dropShadow_482_34505"/>
<feBlend mode="normal" in="SourceGraphic" in2="effect1_dropShadow_482_34505" result="shape"/>
</filter>
</defs>
</svg>
