<svg width="88" height="89" viewBox="0 0 88 89" fill="none" xmlns="http://www.w3.org/2000/svg">
<g filter="url(#filter0_d_482_34517)">
<rect x="20" y="10.5" width="48" height="48" rx="24" fill="white"/>
<g clip-path="url(#clip0_482_34517)">
<path d="M42.9979 23.1186C42.7936 23.1747 42.5128 23.2769 42.3647 23.3535C42.0072 23.5322 41.4607 24.0991 41.2463 24.5025C41.1492 24.6864 39.1014 28.2816 36.696 32.4948C33.9741 37.2595 32.2633 40.3032 32.1765 40.5381C31.9007 41.3041 31.9518 42.3357 32.3041 43.0864C32.728 43.975 33.6524 44.6797 34.6278 44.8534C35.2202 44.9606 52.7622 44.9606 53.3444 44.8585C54.0492 44.7308 54.6364 44.4193 55.1012 43.9341C55.6425 43.3673 55.9132 42.734 56 41.825C56.0613 41.1917 56 40.7883 55.7906 40.3695C55.7038 40.201 48.7431 28.1539 47.0528 25.2481C46.5625 24.4055 46.4501 24.2523 46.0722 23.905C45.4543 23.3382 44.7955 23.0777 43.9223 23.042C43.478 23.0266 43.2839 23.042 42.9979 23.1186ZM44.2338 25.3809C44.3563 25.4422 44.4993 25.5392 44.5555 25.5954C44.6066 25.6567 46.5982 29.0681 48.978 33.1842C51.3578 37.3003 53.4159 40.8496 53.5538 41.0743C53.8142 41.4982 53.8602 41.7126 53.7581 41.9833C53.6764 42.1876 53.3853 42.4889 53.1657 42.5859C52.9716 42.6778 52.5579 42.683 43.9478 42.683C35.3376 42.683 34.924 42.6778 34.7299 42.5859C34.2805 42.3816 33.9792 41.8556 34.0813 41.4522C34.1579 41.1458 43.003 25.7078 43.1971 25.5443C43.5443 25.2481 43.8712 25.1971 44.2338 25.3809Z" fill="#0044FF"/>
<path d="M43.7695 29.6297C43.744 29.64 43.6572 29.6655 43.5806 29.6808C43.4069 29.7217 43.1056 29.9821 42.9882 30.1915C42.9116 30.3345 42.9014 30.5949 42.9014 32.9083V35.4669L43.0546 35.712C43.2691 36.0542 43.5091 36.1716 43.9993 36.1716C44.4896 36.1716 44.7296 36.0542 44.9441 35.712L45.0973 35.4669V32.9543V30.4417L44.9441 30.1915C44.7501 29.88 44.4181 29.6655 44.0708 29.6349C43.933 29.6195 43.8002 29.6195 43.7695 29.6297Z" fill="#0044FF"/>
<path d="M43.5644 38.4086C43.2733 38.526 43.1865 38.5975 43.0537 38.8171C42.7115 39.4044 42.9107 40.1909 43.4571 40.4411C43.738 40.5688 44.2589 40.5688 44.5398 40.4411C45.2547 40.1143 45.3058 39.0061 44.6266 38.5311C44.453 38.4086 44.3508 38.3779 44.0648 38.3626C43.8657 38.3524 43.6512 38.3677 43.5644 38.4086Z" fill="#0044FF"/>
</g>
</g>
<defs>
<filter id="filter0_d_482_34517" x="0" y="0.5" width="88" height="88" filterUnits="userSpaceOnUse" color-interpolation-filters="sRGB">
<feFlood flood-opacity="0" result="BackgroundImageFix"/>
<feColorMatrix in="SourceAlpha" type="matrix" values="0 0 0 0 0 0 0 0 0 0 0 0 0 0 0 0 0 0 127 0" result="hardAlpha"/>
<feOffset dy="10"/>
<feGaussianBlur stdDeviation="10"/>
<feComposite in2="hardAlpha" operator="out"/>
<feColorMatrix type="matrix" values="0 0 0 0 0 0 0 0 0 0 0 0 0 0 0 0 0 0 0.05 0"/>
<feBlend mode="normal" in2="BackgroundImageFix" result="effect1_dropShadow_482_34517"/>
<feBlend mode="normal" in="SourceGraphic" in2="effect1_dropShadow_482_34517" result="shape"/>
</filter>
<clipPath id="clip0_482_34517">
<rect width="24" height="24" fill="white" transform="translate(32 22)"/>
</clipPath>
</defs>
</svg>
