<svg width="88" height="88" viewBox="0 0 88 88" fill="none" xmlns="http://www.w3.org/2000/svg">
<g filter="url(#filter0_d_482_34495)">
<rect x="20" y="10" width="48" height="48" rx="24" fill="white"/>
<g clip-path="url(#clip0_482_34495)">
<path d="M41.4353 22.0656C40.9572 22.2156 40.5212 22.6047 40.315 23.05C40.2447 23.2 40.1509 23.6125 40.0572 24.1375C39.9775 24.5969 39.8791 25.0609 39.8322 25.1688C39.6259 25.6328 39.1806 25.9375 38.6556 25.975C38.3697 25.9938 38.3041 25.975 37.5072 25.675C36.6822 25.3656 36.6541 25.3563 36.2181 25.3563C35.5994 25.3563 35.3134 25.4734 34.9056 25.8859C34.6431 26.1531 34.4603 26.4391 33.6025 27.9438C33.0494 28.9047 32.5619 29.7672 32.515 29.8656C32.2806 30.3484 32.2994 31 32.5619 31.5109C32.7306 31.8438 32.8478 31.9609 33.5837 32.5703C34.3666 33.2172 34.5259 33.4563 34.5259 34C34.5259 34.5438 34.3666 34.7828 33.5837 35.4297C32.8478 36.0391 32.7306 36.1609 32.5619 36.4891C32.3744 36.8547 32.3087 37.2625 32.3744 37.6469C32.44 38.0406 32.4212 38.0031 33.6025 40.0563C34.4603 41.5609 34.6431 41.8469 34.9056 42.1141C35.3134 42.5266 35.5994 42.6438 36.2181 42.6438C36.6541 42.6438 36.6822 42.6344 37.5072 42.325C38.3041 42.025 38.3697 42.0063 38.6556 42.025C39.1806 42.0625 39.6259 42.3672 39.8322 42.8313C39.8791 42.9391 39.9775 43.4031 40.0572 43.8625C40.1509 44.3969 40.2447 44.8 40.3197 44.9547C40.4697 45.2828 40.8775 45.6906 41.2197 45.85L41.4916 45.9766H43.9994H46.5072L46.7791 45.85C47.1212 45.6906 47.5291 45.2828 47.6791 44.9547C47.7541 44.8 47.8478 44.3969 47.9416 43.8625C48.0212 43.4031 48.1197 42.9391 48.1666 42.8313C48.3728 42.3672 48.8181 42.0625 49.3431 42.025C49.6291 42.0063 49.6947 42.025 50.4916 42.325C51.3166 42.6344 51.3447 42.6438 51.7806 42.6438C52.3994 42.6438 52.6853 42.5266 53.0931 42.1141C53.3556 41.8469 53.5384 41.5609 54.3962 40.0656C54.9447 39.1094 55.4322 38.2422 55.4791 38.1391C55.7134 37.6609 55.6947 36.9953 55.4369 36.4938C55.2681 36.1563 55.1509 36.0391 54.415 35.4297C53.6322 34.7828 53.4728 34.5438 53.4728 34C53.4728 33.4797 53.6416 33.2031 54.2884 32.6781C55.2962 31.8531 55.5259 31.5531 55.6244 30.9297C55.6806 30.5734 55.6244 30.1609 55.4791 29.8609C55.4322 29.7578 54.9447 28.8906 54.3962 27.9344C53.5384 26.4391 53.3556 26.1531 53.0931 25.8859C52.6853 25.4734 52.3994 25.3563 51.7806 25.3563C51.3447 25.3563 51.3166 25.3656 50.4916 25.675C49.6947 25.975 49.6291 25.9938 49.3431 25.975C48.8181 25.9375 48.3728 25.6328 48.1666 25.1688C48.1197 25.0609 48.0212 24.5969 47.9416 24.1328C47.8291 23.4906 47.7634 23.2188 47.6556 22.9984C47.4869 22.6563 47.14 22.3234 46.765 22.1453L46.5072 22.0234L44.0697 22.0141C42.1478 22.0047 41.59 22.0188 41.4353 22.0656ZM46.0572 24.5641C46.1837 25.3609 46.3244 25.8484 46.54 26.2328C47.1212 27.2641 48.2228 27.9063 49.4134 27.9063C49.9244 27.9063 50.2947 27.8172 51.1525 27.4984L51.7666 27.2641L52.7416 28.9516C53.5478 30.3484 53.7025 30.6438 53.6509 30.6906C53.6134 30.7234 53.3462 30.9438 53.0603 31.1828C52.3806 31.7406 52.1509 32.0031 51.8931 32.5234C51.6494 33.0156 51.5462 33.4469 51.5462 34C51.5462 34.5531 51.6494 34.9844 51.8931 35.4766C52.1509 35.9969 52.3806 36.2594 53.0603 36.8172C53.3462 37.0563 53.6134 37.2766 53.6509 37.3094C53.7025 37.3563 53.5478 37.6516 52.7416 39.0484L51.7666 40.7359L51.1525 40.5016C50.2947 40.1828 49.9244 40.0938 49.4134 40.0938C47.965 40.0938 46.7134 41.0078 46.2775 42.3906C46.2166 42.5828 46.1181 43.0516 46.0572 43.4313L45.9494 44.125H43.9994H42.0494L41.9416 43.4359C41.8806 43.0516 41.7822 42.5828 41.7212 42.3906C41.2853 41.0078 40.0337 40.0938 38.5853 40.0938C38.0744 40.0938 37.7041 40.1828 36.8462 40.5016L36.2322 40.7359L35.2572 39.0484C34.4556 37.6563 34.2962 37.3563 34.3478 37.3094C34.3853 37.2766 34.6525 37.0563 34.9384 36.8172C35.6181 36.2594 35.8478 35.9969 36.1056 35.4766C36.3494 34.9844 36.4525 34.5531 36.4525 34C36.4525 33.4469 36.3494 33.0156 36.1056 32.5234C35.8478 32.0031 35.6181 31.7406 34.9384 31.1828C34.6525 30.9438 34.3853 30.7234 34.3478 30.6906C34.2962 30.6438 34.4556 30.3438 35.2572 28.9516L36.2322 27.2688L36.9025 27.5172C37.8447 27.8688 38.1025 27.9203 38.7259 27.8922C39.6353 27.8547 40.3666 27.5219 40.9994 26.8469C41.5337 26.2797 41.7541 25.7453 41.9416 24.5641L42.0494 23.875H43.9994H45.9494L46.0572 24.5641Z" fill="#0044FF"/>
<path d="M43.0615 29.4531C40.8725 29.9218 39.3584 31.7828 39.3584 34C39.3584 36.264 40.9662 38.1812 43.1881 38.5703C46.0428 39.0672 48.6396 36.8922 48.6396 34C48.6396 31.75 47.0646 29.8515 44.8428 29.4343C44.3318 29.3359 43.5631 29.3453 43.0615 29.4531ZM44.7021 31.3797C45.1803 31.5109 45.4615 31.6703 45.8412 32.0265C46.9568 33.0765 47.0131 34.7359 45.9725 35.8422C44.9178 36.9578 43.2631 37.014 42.1568 35.9734C40.985 34.8672 40.985 33.1281 42.1568 32.0265C42.86 31.3656 43.7975 31.1265 44.7021 31.3797Z" fill="#0044FF"/>
</g>
</g>
<defs>
<filter id="filter0_d_482_34495" x="0" y="0" width="88" height="88" filterUnits="userSpaceOnUse" color-interpolation-filters="sRGB">
<feFlood flood-opacity="0" result="BackgroundImageFix"/>
<feColorMatrix in="SourceAlpha" type="matrix" values="0 0 0 0 0 0 0 0 0 0 0 0 0 0 0 0 0 0 127 0" result="hardAlpha"/>
<feOffset dy="10"/>
<feGaussianBlur stdDeviation="10"/>
<feComposite in2="hardAlpha" operator="out"/>
<feColorMatrix type="matrix" values="0 0 0 0 0 0 0 0 0 0 0 0 0 0 0 0 0 0 0.05 0"/>
<feBlend mode="normal" in2="BackgroundImageFix" result="effect1_dropShadow_482_34495"/>
<feBlend mode="normal" in="SourceGraphic" in2="effect1_dropShadow_482_34495" result="shape"/>
</filter>
<clipPath id="clip0_482_34495">
<rect width="24" height="24" fill="white" transform="translate(32 22)"/>
</clipPath>
</defs>
</svg>
