<svg width="88" height="88" viewBox="0 0 88 88" fill="none" xmlns="http://www.w3.org/2000/svg">
<g filter="url(#filter0_d_482_34455)">
<rect x="20" y="10" width="48" height="48" rx="24" fill="white"/>
<g clip-path="url(#clip0_482_34455)">
<path d="M52.0154 39.2327L52.0151 39.2332C51.89 39.4282 51.724 39.6614 51.5822 39.8479C51.5121 39.9402 51.4488 40.02 51.3997 40.0777C51.3693 40.0004 51.3311 39.8928 51.2915 39.772C50.6641 37.846 49.2184 36.1782 47.3929 35.2849C47.1882 35.1845 46.9618 35.0836 46.858 35.0407C47.0021 34.9316 47.2228 34.7169 47.4305 34.4951C47.6523 34.2582 47.8706 34.0009 47.9748 33.8378C48.5321 32.9689 48.7781 32.0369 48.7299 31.0019C48.6375 28.9238 47.2225 27.1852 45.1744 26.628C44.8548 26.538 44.6915 26.5298 44 26.5298C43.5522 26.5298 43.2478 26.5426 42.9695 26.5938C42.6898 26.6453 42.441 26.7347 42.1029 26.8821L42.1029 26.8821C39.4234 28.0506 38.4363 31.3575 40.0208 33.8291C40.1228 33.99 40.329 34.2362 40.5435 34.4669C40.758 34.6976 40.9899 34.9225 41.146 35.038L52.0154 39.2327ZM52.0154 39.2327C53.0753 37.6023 53.5684 35.9315 53.5727 33.9987C53.5727 32.4576 53.2623 31.1229 52.5943 29.7653C51.1946 26.9316 48.4973 24.97 45.3485 24.506C44.6055 24.3999 43.3473 24.3999 42.6135 24.5102C38.7711 25.0932 35.6481 27.9189 34.6994 31.6717C34.1294 33.9262 34.4445 36.4758 35.5459 38.5087L35.5459 38.5087C35.7133 38.8181 35.9797 39.235 36.2165 39.5751C36.3349 39.745 36.4448 39.8942 36.5303 40.0002C36.5543 40.03 36.5759 40.0558 36.5949 40.0774C36.5977 40.0705 36.6005 40.0633 36.6035 40.0558C36.6376 39.9686 36.6811 39.8477 36.726 39.7153C37.4273 37.6328 39.0472 35.8994 41.082 35.0715L41.0825 35.0712L41.1529 35.0431L41.1462 35.0381L52.0154 39.2327ZM44.7704 28.1197L44.7706 28.1197C46.2097 28.4868 47.2102 29.7714 47.2102 31.2473C47.2102 32.1097 46.9034 32.8373 46.2715 33.4818C44.9953 34.7789 43.0047 34.7789 41.7285 33.4818L44.7704 28.1197ZM44.7704 28.1197C44.3352 28.0077 43.6389 28.0079 43.2129 28.1195C41.7862 28.4951 40.7898 29.7798 40.7898 31.2473C40.7898 32.1096 41.0966 32.8372 41.7283 33.4817L44.7704 28.1197ZM42.612 22.9578L42.6124 22.9577C43.2305 22.8837 44.7216 22.8794 45.3445 22.9534L45.3448 22.9535C47.3011 23.192 49.0671 23.8995 50.68 25.0963L50.6803 25.0965C51.3328 25.5838 52.4144 26.6655 52.9016 27.3181L52.9018 27.3183C54.0985 28.9314 54.8059 30.6976 55.0445 32.654L55.0445 32.6547C55.1185 33.2986 55.1185 34.6993 55.0445 35.3432L55.0445 35.3439C54.8059 37.3003 54.0985 39.0665 52.9018 40.6796L52.9016 40.6798C52.4144 41.3324 51.3328 42.4141 50.6803 42.9014L50.68 42.9016C49.0671 44.0984 47.3011 44.8059 45.3448 45.0444V45.0444L45.3441 45.0445C44.7003 45.1185 43.2997 45.1185 42.6559 45.0445L42.6552 45.0444C40.6989 44.8059 38.9329 44.0984 37.32 42.9016L37.3197 42.9014C36.6672 42.4141 35.5856 41.3324 35.0984 40.6798L35.0982 40.6796C33.9015 39.0665 33.1941 37.3003 32.9555 35.3439L32.9555 35.3439L32.9555 35.3432C32.8815 34.6993 32.8815 33.2986 32.9555 32.6547L32.9555 32.654C33.1941 30.6976 33.9015 28.9314 35.0982 27.3183L35.0984 27.3181C35.5856 26.6655 36.6672 25.5838 37.3197 25.0965L37.32 25.0963C38.9155 23.9126 40.6857 23.1964 42.612 22.9578ZM45.1214 36.1353L45.1212 36.1352C44.9184 36.098 44.4689 36.0637 44.1265 36.0551L44.1261 36.0551C43.0938 36.0255 42.2671 36.2067 41.305 36.6686C40.169 37.2177 39.0802 38.3021 38.5051 39.4565L38.5051 39.4566C38.2169 40.033 37.9891 40.7522 37.9304 41.2542L37.9146 41.412L38.2213 41.6402C38.2214 41.6402 38.2214 41.6402 38.2215 41.6403C39.9889 42.9436 41.8683 43.5726 44 43.5726C45.8599 43.5726 47.5052 43.1006 49.0842 42.1132C49.3548 41.9426 49.6143 41.7618 49.8058 41.6136C49.9019 41.5393 49.9792 41.4745 50.0319 41.4242C50.0584 41.3988 50.0767 41.3791 50.0876 41.3651C50.0886 41.3638 50.0895 41.3626 50.0903 41.3616C50.0889 41.3304 50.0825 41.2791 50.0701 41.2088C50.0556 41.1267 50.0341 41.0259 50.0078 40.9157C49.9552 40.6951 49.884 40.4401 49.812 40.2263L49.8119 40.2259C49.1183 38.1406 47.2646 36.5242 45.1214 36.1353Z" fill="#0044FF" stroke="#0044FF" stroke-width="0.2"/>
</g>
</g>
<defs>
<filter id="filter0_d_482_34455" x="0" y="0" width="88" height="88" filterUnits="userSpaceOnUse" color-interpolation-filters="sRGB">
<feFlood flood-opacity="0" result="BackgroundImageFix"/>
<feColorMatrix in="SourceAlpha" type="matrix" values="0 0 0 0 0 0 0 0 0 0 0 0 0 0 0 0 0 0 127 0" result="hardAlpha"/>
<feOffset dy="10"/>
<feGaussianBlur stdDeviation="10"/>
<feComposite in2="hardAlpha" operator="out"/>
<feColorMatrix type="matrix" values="0 0 0 0 0 0 0 0 0 0 0 0 0 0 0 0 0 0 0.05 0"/>
<feBlend mode="normal" in2="BackgroundImageFix" result="effect1_dropShadow_482_34455"/>
<feBlend mode="normal" in="SourceGraphic" in2="effect1_dropShadow_482_34455" result="shape"/>
</filter>
<clipPath id="clip0_482_34455">
<rect width="24" height="24" fill="white" transform="translate(32 22)"/>
</clipPath>
</defs>
</svg>
