<svg width="88" height="88" viewBox="0 0 88 88" fill="none" xmlns="http://www.w3.org/2000/svg">
<g filter="url(#filter0_d_482_34464)">
<rect x="20" y="10" width="48" height="48" rx="24" fill="white"/>
<g clip-path="url(#clip0_482_34464)">
<path d="M51.3846 25.5769H36.6154C34.0677 25.5769 32 27.6446 32 30.1923V38.8077C32 41.3554 34.0677 43.4231 36.6154 43.4231H51.3846C53.9323 43.4231 56 41.3554 56 38.8077V30.1923C56 27.6446 53.9323 25.5769 51.3846 25.5769ZM36.6154 27.4231H51.3846C52.9108 27.4231 54.1538 28.6661 54.1538 30.1923V30.5H33.8462V30.1923C33.8462 28.6661 35.0892 27.4231 36.6154 27.4231ZM51.3846 41.5769H36.6154C35.0892 41.5769 33.8462 40.3338 33.8462 38.8077V32.3461H54.1538V38.8077C54.1538 40.3338 52.9108 41.5769 51.3846 41.5769Z" fill="#0044FF"/>
<path d="M41.5382 37.8846H37.8459C37.3413 37.8846 36.9229 38.3031 36.9229 38.8077C36.9229 39.3123 37.3413 39.7308 37.8459 39.7308H41.5382C42.0429 39.7308 42.4613 39.3123 42.4613 38.8077C42.4613 38.3031 42.0429 37.8846 41.5382 37.8846Z" fill="#0044FF"/>
</g>
</g>
<defs>
<filter id="filter0_d_482_34464" x="0" y="0" width="88" height="88" filterUnits="userSpaceOnUse" color-interpolation-filters="sRGB">
<feFlood flood-opacity="0" result="BackgroundImageFix"/>
<feColorMatrix in="SourceAlpha" type="matrix" values="0 0 0 0 0 0 0 0 0 0 0 0 0 0 0 0 0 0 127 0" result="hardAlpha"/>
<feOffset dy="10"/>
<feGaussianBlur stdDeviation="10"/>
<feComposite in2="hardAlpha" operator="out"/>
<feColorMatrix type="matrix" values="0 0 0 0 0 0 0 0 0 0 0 0 0 0 0 0 0 0 0.05 0"/>
<feBlend mode="normal" in2="BackgroundImageFix" result="effect1_dropShadow_482_34464"/>
<feBlend mode="normal" in="SourceGraphic" in2="effect1_dropShadow_482_34464" result="shape"/>
</filter>
<clipPath id="clip0_482_34464">
<rect width="24" height="24" fill="white" transform="translate(32 22)"/>
</clipPath>
</defs>
</svg>
