<svg width="24" height="24" viewBox="0 0 24 24" fill="none" xmlns="http://www.w3.org/2000/svg">
<path d="M1.9875 4.19531C1.09219 4.39219 0.3375 5.1 0.075 5.99531C0.009375 6.225 0 6.87656 0 12C0 17.1234 0.009375 17.775 0.075 18.0047C0.342188 18.9094 1.09688 19.6125 2.01094 19.8094C2.26875 19.8609 3.99844 19.875 12.8672 19.875C23.1656 19.875 23.4188 19.8703 23.6109 19.7813C23.8969 19.6547 24.0094 19.4531 23.9906 19.1016C23.9719 18.8203 23.9719 18.8203 23.2219 17.7891L22.4719 16.7578L23.2219 15.7313C23.9531 14.7281 23.9719 14.6953 23.9906 14.4375C24.0047 14.2734 23.9859 14.1234 23.9531 14.0578C23.9203 13.9969 23.5781 13.5188 23.1984 12.9938C22.8141 12.4641 22.5 12.0188 22.5 12C22.5 11.9813 22.8141 11.5359 23.1984 11.0063C23.5781 10.4813 23.9203 10.0031 23.9531 9.94219C23.9859 9.87656 24.0047 9.72656 23.9906 9.5625C23.9719 9.30469 23.9531 9.27188 23.2219 8.26875L22.4719 7.24219L23.2219 6.21094C23.9484 5.2125 23.9719 5.17031 23.9906 4.91719C24.0141 4.60781 23.9344 4.42031 23.7094 4.25625L23.5547 4.14844L12.9141 4.13906C4.23281 4.13438 2.22188 4.14375 1.9875 4.19531ZM21.8156 5.63438C21.7969 5.66719 21.6 5.94844 21.375 6.25781C21.15 6.56719 20.9438 6.86719 20.9109 6.92344C20.8453 7.05469 20.8453 7.42969 20.9109 7.55625C20.9391 7.6125 21.2719 8.07656 21.6422 8.59219C22.0125 9.10313 22.3313 9.55313 22.3453 9.59063C22.3547 9.62344 22.0359 10.1109 21.6234 10.6734L20.8828 11.6906V12V12.3094L21.6234 13.3266C22.0359 13.8891 22.3547 14.3766 22.3453 14.4094C22.3313 14.4469 22.0125 14.8969 21.6422 15.4078C21.2719 15.9234 20.9391 16.3875 20.9109 16.4438C20.8453 16.5703 20.8453 16.9453 20.9109 17.0766C20.9438 17.1328 21.15 17.4328 21.375 17.7422C21.6 18.0516 21.7969 18.3328 21.8156 18.3609C21.8438 18.4078 20.2828 18.4219 14.0906 18.4219H6.32813V12V5.57813H14.0906C20.2828 5.57813 21.8438 5.59219 21.8156 5.63438Z" fill="#7A8399"/>
<path opacity="0.5" d="M12.8438 6.40273C12.7781 6.4121 12.5813 6.44491 12.3984 6.47304C11.9625 6.54335 11.3391 6.7496 10.9125 6.96523C9.35625 7.74804 8.27813 9.1496 7.9125 10.8746C7.77656 11.4934 7.77656 12.5059 7.9125 13.1246C8.39062 15.3605 10.0266 17.0059 12.2906 17.5121C12.7922 17.6293 14.0063 17.6293 14.5313 17.5168C15.6516 17.273 16.5797 16.7855 17.3578 16.0168C18.4547 14.9387 19.0312 13.5512 19.0312 11.9996C19.0312 9.30898 17.1938 7.04491 14.5547 6.49179C14.1984 6.41679 13.0969 6.36054 12.8438 6.40273ZM12.0891 9.74491C12.5109 10.0449 12.5156 10.584 12.0938 10.8652C11.9578 10.959 11.8875 10.973 11.6813 10.959C11.1797 10.9168 10.9078 10.4058 11.1609 9.98397C11.2828 9.7871 11.3672 9.71679 11.5547 9.66054C11.7328 9.60429 11.9438 9.6371 12.0891 9.74491ZM15.5672 9.8246C15.7359 9.98397 15.8156 10.223 15.7734 10.4433C15.7453 10.5933 15.5016 10.8605 13.9547 12.4121C12.9703 13.4012 12.1031 14.2402 12.0281 14.2824C11.85 14.3762 11.5688 14.3715 11.3953 14.2684C11.1141 14.1043 10.9875 13.6871 11.1281 13.4152C11.1656 13.3449 12.0094 12.4777 12.9984 11.4934C14.9156 9.57616 14.9109 9.58085 15.2766 9.66054C15.3609 9.67929 15.4922 9.75429 15.5672 9.8246ZM15.7125 13.1434C16.0828 13.3871 16.0594 14.0152 15.675 14.2496C15.15 14.5777 14.4797 14.0621 14.6672 13.4855C14.8078 13.0637 15.3281 12.8902 15.7125 13.1434Z" fill="#7A8399"/>
</svg>
