<svg width="24" height="24" viewBox="0 0 24 24" fill="none" xmlns="http://www.w3.org/2000/svg">
<path d="M6.95432 2.68918C6.67311 2.97047 6.51514 3.35193 6.51514 3.74968C6.51514 4.14743 6.67311 4.52889 6.95432 4.81018L14.3793 12.2352L6.95432 19.6602C6.68108 19.9431 6.52989 20.322 6.53331 20.7153C6.53673 21.1086 6.69448 21.4848 6.97259 21.7629C7.2507 22.041 7.62692 22.1988 8.02022 22.2022C8.41351 22.2056 8.79241 22.0544 9.07532 21.7812L17.5608 13.2957C17.842 13.0144 18 12.6329 18 12.2352C18 11.8374 17.842 11.456 17.5608 11.1747L9.07532 2.68918C8.79403 2.40797 8.41257 2.25 8.01482 2.25C7.61707 2.25 7.23561 2.40797 6.95432 2.68918Z" fill="white"/>
</svg>
