<svg width="25" height="24" viewBox="0 0 25 24" fill="none" xmlns="http://www.w3.org/2000/svg">
<path d="M16.0842 15.75C17.2111 15.749 18.3149 15.4307 19.2693 14.8315C20.2237 14.2323 20.9901 13.3765 21.4807 12.3619C21.9712 11.3474 22.1662 10.2152 22.0432 9.09507C21.9202 7.97489 21.4842 6.912 20.7851 6.02811C20.0861 5.14422 19.1523 4.47505 18.0906 4.09725C17.0289 3.71944 15.8823 3.64826 14.782 3.89187C13.6817 4.13547 12.6723 4.68401 11.8693 5.47467C11.0663 6.26532 10.5023 7.26613 10.2417 8.3625C10.2379 8.40241 10.2379 8.44259 10.2417 8.4825C9.08451 8.15156 7.85459 8.17626 6.71167 8.55339C5.56875 8.93052 4.56566 9.64266 3.83272 10.5973C3.09979 11.5519 2.67087 12.7049 2.60171 13.9064C2.53255 15.108 2.82634 16.3025 3.44491 17.335C4.06347 18.3674 4.97823 19.1899 6.07033 19.6957C7.16243 20.2014 8.38139 20.3671 9.56886 20.1711C10.7563 19.9751 11.8574 19.4266 12.7291 18.5967C13.6007 17.7668 14.2026 16.6939 14.4567 15.5175C14.9857 15.6703 15.5335 15.7485 16.0842 15.75ZM11.7042 8.715C11.9093 7.8261 12.3797 7.02053 13.053 6.40509C13.7264 5.78964 14.5709 5.39339 15.4746 5.26885C16.3783 5.14432 17.2986 5.29739 18.1133 5.70777C18.928 6.11815 19.5988 6.76646 20.0367 7.56675C20.4745 8.36705 20.6588 9.28152 20.5651 10.1889C20.4714 11.0964 20.1042 11.9539 19.512 12.6478C18.9198 13.3417 18.1307 13.8393 17.2493 14.0745C16.3679 14.3098 15.4358 14.2716 14.5767 13.965C14.5317 12.9462 14.2279 11.9557 13.6938 11.087C13.1597 10.2182 12.413 9.49997 11.5242 9C11.6023 8.91913 11.6612 8.82173 11.6967 8.715H11.7042ZM8.58415 18.75C7.69414 18.75 6.82411 18.4861 6.08409 17.9916C5.34407 17.4971 4.76729 16.7943 4.42669 15.9721C4.0861 15.1498 3.99699 14.245 4.17062 13.3721C4.34425 12.4992 4.77284 11.6974 5.40217 11.068C6.03151 10.4387 6.83333 10.0101 7.70625 9.83646C8.57916 9.66283 9.48396 9.75195 10.3062 10.0925C11.1285 10.4331 11.8313 11.0099 12.3258 11.7499C12.8202 12.49 13.0842 13.36 13.0842 14.25C13.0842 15.4435 12.61 16.5881 11.7661 17.432C10.9222 18.2759 9.77763 18.75 8.58415 18.75Z" fill="#0044FF"/>
<path d="M3.33398 9.00002C3.5329 9.00002 3.72366 8.921 3.86431 8.78035C4.00497 8.63969 4.08398 8.44893 4.08398 8.25002V6.60752C4.08398 6.4464 4.14799 6.29188 4.26192 6.17795C4.37585 6.06402 4.53037 6.00002 4.69148 6.00002H6.77648L6.55148 6.21752C6.48119 6.28724 6.42539 6.37019 6.38732 6.46158C6.34924 6.55298 6.32964 6.65101 6.32964 6.75002C6.32964 6.84903 6.34924 6.94705 6.38732 7.03845C6.42539 7.12984 6.48119 7.21279 6.55148 7.28252C6.62121 7.35281 6.70416 7.40861 6.79555 7.44668C6.88695 7.48476 6.98498 7.50437 7.08398 7.50437C7.18299 7.50437 7.28102 7.48476 7.37242 7.44668C7.46381 7.40861 7.54676 7.35281 7.61648 7.28252L9.11648 5.78252C9.18678 5.71279 9.24258 5.62984 9.28065 5.53845C9.31873 5.44706 9.33833 5.34903 9.33833 5.25002C9.33833 5.15101 9.31873 5.05298 9.28065 4.96158C9.24258 4.87019 9.18678 4.78724 9.11648 4.71752L7.61648 3.21752C7.47526 3.07629 7.28371 2.99695 7.08398 2.99695C6.88426 2.99695 6.69271 3.07629 6.55148 3.21752C6.41026 3.35874 6.33092 3.55029 6.33092 3.75002C6.33092 3.94974 6.41026 4.14129 6.55148 4.28252L6.77648 4.50002H4.69148C4.13254 4.50002 3.59649 4.72206 3.20126 5.11729C2.80602 5.51252 2.58398 6.04857 2.58398 6.60752V8.25002C2.58398 8.44893 2.663 8.63969 2.80365 8.78035C2.94431 8.921 3.13507 9.00002 3.33398 9.00002Z" fill="#0044FF"/>
<path d="M21.3344 15C21.1355 15 20.9447 15.079 20.8041 15.2197C20.6634 15.3603 20.5844 15.5511 20.5844 15.75V17.3925C20.5844 17.5536 20.5204 17.7081 20.4065 17.8221C20.2926 17.936 20.138 18 19.9769 18H17.8919L18.1169 17.7825C18.2582 17.6413 18.3375 17.4497 18.3375 17.25C18.3375 17.0503 18.2582 16.8587 18.1169 16.7175C17.9757 16.5763 17.7842 16.4969 17.5844 16.4969C17.3847 16.4969 17.1932 16.5763 17.0519 16.7175L15.5519 18.2175C15.4816 18.2872 15.4258 18.3702 15.3878 18.4616C15.3497 18.553 15.3301 18.651 15.3301 18.75C15.3301 18.849 15.3497 18.947 15.3878 19.0384C15.4258 19.1298 15.4816 19.2128 15.5519 19.2825L17.0519 20.7825C17.1216 20.8528 17.2046 20.9086 17.296 20.9467C17.3874 20.9847 17.4854 21.0043 17.5844 21.0043C17.6834 21.0043 17.7815 20.9847 17.8729 20.9467C17.9643 20.9086 18.0472 20.8528 18.1169 20.7825C18.1872 20.7128 18.243 20.6298 18.2811 20.5384C18.3192 20.447 18.3388 20.349 18.3388 20.25C18.3388 20.151 18.3192 20.053 18.2811 19.9616C18.243 19.8702 18.1872 19.7872 18.1169 19.7175L17.8919 19.5H19.9769C20.5359 19.5 21.0719 19.278 21.4672 18.8827C21.8624 18.4875 22.0844 17.9514 22.0844 17.3925V15.75C22.0844 15.5511 22.0054 15.3603 21.8648 15.2197C21.7241 15.079 21.5333 15 21.3344 15Z" fill="#0044FF"/>
<path d="M8.95898 11.25H7.08398C6.88507 11.25 6.69431 11.329 6.55365 11.4697C6.413 11.6103 6.33398 11.8011 6.33398 12C6.33398 12.1989 6.413 12.3897 6.55365 12.5303C6.69431 12.671 6.88507 12.75 7.08398 12.75V15.75C6.88507 15.75 6.69431 15.829 6.55365 15.9697C6.413 16.1103 6.33398 16.3011 6.33398 16.5C6.33398 16.6989 6.413 16.8897 6.55365 17.0303C6.69431 17.171 6.88507 17.25 7.08398 17.25H8.95898C9.30719 17.25 9.64853 17.153 9.94473 16.97C10.2409 16.7869 10.4803 16.525 10.636 16.2135C10.7918 15.9021 10.8577 15.5534 10.8264 15.2066C10.7951 14.8598 10.6679 14.5286 10.459 14.25C10.6679 13.9714 10.7951 13.6402 10.8264 13.2934C10.8577 12.9466 10.7918 12.5979 10.636 12.2865C10.4803 11.975 10.2409 11.7131 9.94473 11.53C9.64853 11.347 9.30719 11.25 8.95898 11.25ZM8.95898 15.75H8.58398V15H8.95898C9.05844 15 9.15382 15.0395 9.22415 15.1098C9.29448 15.1802 9.33398 15.2755 9.33398 15.375C9.33398 15.4745 9.29448 15.5698 9.22415 15.6402C9.15382 15.7105 9.05844 15.75 8.95898 15.75ZM8.95898 13.5H8.58398V12.75H8.95898C9.05844 12.75 9.15382 12.7895 9.22415 12.8598C9.29448 12.9302 9.33398 13.0255 9.33398 13.125C9.33398 13.2245 9.29448 13.3198 9.22415 13.3902C9.15382 13.4605 9.05844 13.5 8.95898 13.5Z" fill="#0044FF"/>
</svg>
