<svg width="24" height="24" viewBox="0 0 24 24" fill="none" xmlns="http://www.w3.org/2000/svg">
<path d="M13.3617 22.1492C13.5356 22.0681 13.7172 21.8748 13.7482 21.7434C13.7559 21.697 13.7713 21.0864 13.7791 20.3829C13.7984 19.0457 13.8139 18.9026 14.0032 18.3152C14.1076 17.9905 14.3318 17.5383 14.5405 17.2291C14.7531 16.9122 15.3367 16.3324 15.6691 16.1121L15.928 15.9382L15.9319 10.9833L15.9319 6.02832L15.5338 5.73845C15.097 5.41379 14.6526 5.17802 14.2699 5.0698C14.0342 5.0041 13.7868 5.00023 10.1537 5.00023C5.80944 5.00023 6.09932 4.98091 5.46159 5.29397C4.86252 5.58771 4.34847 6.20611 4.16682 6.83611C4.11657 7.0139 3.07689 13.5728 3.00732 14.1487C2.9764 14.4038 3.04597 14.9101 3.15419 15.2077C3.2856 15.5633 3.47112 15.857 3.74167 16.1276C4.03541 16.4174 4.31369 16.5875 4.75043 16.746L5.09055 16.8658L7.66851 16.8774L10.2503 16.889L10.1498 17.09C9.85224 17.6736 9.68991 18.4427 9.68991 19.2814C9.69377 19.838 9.7015 19.9037 9.79813 20.1897C10.0725 20.9782 10.6175 21.5734 11.3828 21.9289C11.7886 22.1183 12.0823 22.1802 12.6853 22.2034C13.1452 22.2188 13.2264 22.215 13.3617 22.1492Z" fill="#DFE0E6"/>
<path d="M21.1379 15.9808C21.4857 15.8687 21.7447 15.6368 21.9031 15.2967L21.9998 15.0803L21.992 10.7553L21.9804 6.43038L21.8877 6.24099C21.7756 6.00909 21.5591 5.78879 21.335 5.66897C21.1688 5.58008 21.1533 5.58008 19.7774 5.58008C18.4092 5.58008 18.3821 5.58008 18.2236 5.66897C17.9647 5.80425 17.7985 5.97431 17.671 6.22553L17.555 6.4613L17.555 10.7592C17.555 15.5943 17.5357 15.2542 17.8526 15.6098C17.9492 15.718 18.1193 15.8533 18.2275 15.9112L18.4246 16.0156L19.7001 16.0233C20.6779 16.031 21.0142 16.0194 21.1379 15.9808Z" fill="#DFE0E6"/>
</svg>
