<svg width="33" height="60" viewBox="0 0 33 60" fill="none" xmlns="http://www.w3.org/2000/svg">
<rect width="33" height="60" rx="8" fill="#F2F5FF"/>
<path d="M13.2927 23.2929C13.1052 23.4804 12.9999 23.7347 12.9999 23.9999C12.9999 24.2651 13.1052 24.5194 13.2927 24.7069L18.2427 29.6569L13.2927 34.6069C13.1105 34.7955 13.0098 35.0481 13.012 35.3103C13.0143 35.5725 13.1195 35.8233 13.3049 36.0087C13.4903 36.1941 13.7411 36.2993 14.0033 36.3016C14.2655 36.3039 14.5181 36.2031 14.7067 36.0209L20.3637 30.3639C20.5512 30.1764 20.6565 29.9221 20.6565 29.6569C20.6565 29.3917 20.5512 29.1374 20.3637 28.9499L14.7067 23.2929C14.5192 23.1054 14.2649 23.0001 13.9997 23.0001C13.7345 23.0001 13.4802 23.1054 13.2927 23.2929Z" fill="#0044FF"/>
</svg>
