<svg width="16" height="17" viewBox="0 0 16 17" fill="none" xmlns="http://www.w3.org/2000/svg">
<path d="M14.3515 4.13606C14.164 3.94859 13.9097 3.84328 13.6445 3.84327C13.3793 3.84327 13.125 3.94859 12.9375 4.13606L7.9875 9.08606L3.0375 4.13606C2.8489 3.9539 2.5963 3.85311 2.3341 3.85539C2.0719 3.85766 1.82109 3.96283 1.63568 4.14824C1.45027 4.33365 1.3451 4.58446 1.34283 4.84666C1.34055 5.10886 1.44134 5.36146 1.6235 5.55006L7.2805 11.2071C7.46803 11.3945 7.72234 11.4998 7.9875 11.4998C8.25266 11.4998 8.50697 11.3945 8.6945 11.2071L14.3515 5.55006C14.539 5.36253 14.6443 5.10823 14.6443 4.84306C14.6443 4.5779 14.539 4.32359 14.3515 4.13606Z" fill="#7A8399"/>
</svg>
