<svg width="24" height="24" viewBox="0 0 24 24" fill="none" xmlns="http://www.w3.org/2000/svg">
<path d="M7.65469 2.46094C6.83906 2.68125 6.13594 3.32344 5.85 4.10156C5.66719 4.60781 5.68125 5.49375 5.88281 6.00937C5.91563 6.08906 5.84063 6.09375 4.77188 6.09375C3.43125 6.09375 3.32344 6.11719 2.92969 6.47812C2.52188 6.85312 2.48438 6.99844 2.48438 8.2875V9.35156L2.61563 9.63281C2.76562 9.94687 3.00469 10.1812 3.32344 10.3312L3.53906 10.4297H12H20.4609L20.6766 10.3312C20.9906 10.1859 21.2109 9.96562 21.375 9.64687L21.5156 9.36094V8.29688C21.5156 7.0125 21.4922 6.90469 21.0984 6.51094C20.7 6.11719 20.6063 6.09375 19.2281 6.09375C18.1594 6.09375 18.0844 6.08906 18.1172 6.00937C18.3094 5.51719 18.3375 4.73906 18.1828 4.2375C17.8406 3.11719 16.8422 2.39062 15.6469 2.39062C14.9531 2.39062 14.2969 2.64375 13.8375 3.09375C13.7109 3.225 13.2469 3.81094 12.8109 4.40625C12.3797 4.99687 12.0094 5.47969 11.9906 5.47031C11.9766 5.46562 11.6203 4.99687 11.2031 4.42969C10.7859 3.8625 10.3266 3.27656 10.1813 3.13125C9.88594 2.83125 9.43594 2.56875 9.01875 2.46094C8.68125 2.37187 7.98281 2.37187 7.65469 2.46094ZM8.89219 4.17656C9.00469 4.24687 10.1297 5.69531 10.3266 6.02812C10.3453 6.06562 10.0406 6.075 9.26719 6.06094C8.06719 6.0375 7.90313 6.00937 7.64531 5.75625C7.41563 5.53125 7.34063 5.35312 7.34063 5.03906C7.33594 4.2375 8.20781 3.75469 8.89219 4.17656ZM16.2047 4.17656C16.4156 4.30781 16.6266 4.64062 16.6688 4.90312C16.7297 5.32969 16.3969 5.86406 15.9797 5.99062C15.7547 6.06094 13.6359 6.09375 13.6734 6.02812C13.8469 5.72344 14.9953 4.24687 15.1125 4.17656C15.4359 3.975 15.8766 3.975 16.2047 4.17656Z" fill="#7A8399"/>
<path opacity="0.5" d="M3.79688 15.7172C3.79688 18.1875 3.81563 19.5281 3.84844 19.7156C4.00313 20.5687 4.70625 21.3141 5.55469 21.5391C5.79844 21.6 6.61406 21.6094 12 21.6094C17.3859 21.6094 18.2016 21.6 18.4453 21.5391C19.2938 21.3141 19.9969 20.5687 20.1516 19.7156C20.1844 19.5281 20.2031 18.1875 20.2031 15.7172V12H12H3.79688V15.7172Z" fill="#7A8399"/>
</svg>
