<svg width="24" height="24" viewBox="0 0 24 24" fill="none" xmlns="http://www.w3.org/2000/svg">
<path d="M15 5.25C13.92 5.25 12.9 5.51 11.99 5.97C11.06 5.51 10.04 5.25 9 5.25C5.28 5.25 2.25 8.28 2.25 12C2.25 15.72 5.28 18.75 9 18.75C10.04 18.75 11.07 18.5 11.99 18.03C12.9 18.48 13.92 18.75 15 18.75C18.72 18.75 21.75 15.72 21.75 12C21.75 8.28 18.72 5.25 15 5.25ZM9 17.25C6.1 17.25 3.75 14.89 3.75 12C3.75 9.11 6.1 6.75 9 6.75C9.51 6.75 10.02 6.83 10.51 6.98C9.13 8.22 8.25 10.01 8.25 12C8.25 13.99 9.13 15.79 10.51 17.02C10.02 17.17 9.52 17.25 9 17.25ZM15 17.25C12.1 17.25 9.75 14.89 9.75 12C9.75 9.11 12.1 6.75 15 6.75C17.9 6.75 20.25 9.11 20.25 12C20.25 14.89 17.89 17.25 15 17.25Z" fill="#0044FF"/>
<path d="M16.2399 9.17998C15.5599 8.49998 14.4499 8.49998 13.7699 9.17998L12.1799 10.77C11.4999 11.45 11.4999 12.56 12.1799 13.24L13.7699 14.83C14.1099 15.17 14.5599 15.34 15.0099 15.34C15.4599 15.34 15.9099 15.17 16.2499 14.83L17.8399 13.24C18.5199 12.56 18.5199 11.45 17.8399 10.77L16.2499 9.17998H16.2399ZM16.7699 12.18L15.1799 13.77C15.0499 13.9 14.9499 13.9 14.8299 13.77L13.2399 12.18C13.1799 12.12 13.1699 12.04 13.1699 12C13.1699 11.96 13.1699 11.89 13.2399 11.82L14.8299 10.23C14.8899 10.17 14.9699 10.16 15.0099 10.16C15.0499 10.16 15.1199 10.16 15.1899 10.23L16.7799 11.82C16.8399 11.88 16.8499 11.96 16.8499 12C16.8499 12.04 16.8499 12.11 16.7799 12.18H16.7699Z" fill="#0044FF"/>
</svg>
