<svg width="25" height="24" viewBox="0 0 25 24" fill="none" xmlns="http://www.w3.org/2000/svg">
<path d="M18.667 5.25H6.66699C4.59699 5.25 2.91699 6.93 2.91699 9V16C2.91699 18.07 4.59699 19.75 6.66699 19.75H18.667C20.737 19.75 22.417 18.07 22.417 16V9C22.417 6.93 20.737 5.25 18.667 5.25ZM6.66699 6.75H18.667C19.907 6.75 20.917 7.76 20.917 9V9.25H4.41699V9C4.41699 7.76 5.42699 6.75 6.66699 6.75ZM18.667 18.25H6.66699C5.42699 18.25 4.41699 17.24 4.41699 16V10.75H20.917V16C20.917 17.24 19.907 18.25 18.667 18.25Z" fill="#0044FF"/>
<path d="M10.667 15.25H7.66699C7.25699 15.25 6.91699 15.59 6.91699 16C6.91699 16.41 7.25699 16.75 7.66699 16.75H10.667C11.077 16.75 11.417 16.41 11.417 16C11.417 15.59 11.077 15.25 10.667 15.25Z" fill="#0044FF"/>
</svg>
