<svg width="24" height="24" viewBox="0 0 24 24" fill="none" xmlns="http://www.w3.org/2000/svg">
<path d="M8 12.75C10.62 12.75 12.75 10.62 12.75 8C12.75 5.38 10.62 3.25 8 3.25C5.38 3.25 3.25 5.38 3.25 8C3.25 10.62 5.38 12.75 8 12.75ZM8 4.75C9.79 4.75 11.25 6.21 11.25 8C11.25 9.79 9.79 11.25 8 11.25C6.21 11.25 4.75 9.79 4.75 8C4.75 6.21 6.21 4.75 8 4.75Z" fill="#0044FF"/>
<path d="M16 11.25C13.38 11.25 11.25 13.38 11.25 16C11.25 18.62 13.38 20.75 16 20.75C18.62 20.75 20.75 18.62 20.75 16C20.75 13.38 18.62 11.25 16 11.25ZM16 19.25C14.21 19.25 12.75 17.79 12.75 16C12.75 14.21 14.21 12.75 16 12.75C17.79 12.75 19.25 14.21 19.25 16C19.25 17.79 17.79 19.25 16 19.25Z" fill="#0044FF"/>
<path d="M21.2995 7.51C20.7195 6.71 19.8295 6.25 18.8395 6.25H16.8095L17.5295 5.53C17.8195 5.24 17.8195 4.76 17.5295 4.47C17.2395 4.18 16.7595 4.18 16.4695 4.47L14.4695 6.47C14.1795 6.76 14.1795 7.24 14.4695 7.53L16.4695 9.53C16.6195 9.68 16.8095 9.75 16.9995 9.75C17.1895 9.75 17.3795 9.68 17.5295 9.53C17.8195 9.24 17.8195 8.76 17.5295 8.47L16.8095 7.75H18.8395C19.3395 7.75 19.7895 7.98 20.0795 8.38C20.3695 8.78 20.4495 9.29 20.2895 9.76C20.1595 10.15 20.3695 10.58 20.7595 10.71C20.8395 10.74 20.9195 10.75 20.9995 10.75C21.3095 10.75 21.6095 10.55 21.7095 10.24C22.0195 9.31 21.8695 8.31 21.2895 7.51H21.2995Z" fill="#0044FF"/>
<path d="M7.52969 14.47C7.23969 14.18 6.75969 14.18 6.46969 14.47C6.17969 14.76 6.17969 15.24 6.46969 15.53L7.18969 16.25H5.15969C4.65969 16.25 4.20969 16.02 3.91969 15.62C3.62969 15.22 3.54969 14.71 3.70969 14.24C3.83969 13.85 3.62969 13.42 3.23969 13.29C2.83969 13.16 2.41969 13.37 2.28969 13.76C1.97969 14.69 2.12969 15.69 2.70969 16.49C3.28969 17.29 4.17969 17.75 5.16969 17.75H7.19969L6.47969 18.47C6.18969 18.76 6.18969 19.24 6.47969 19.53C6.62969 19.68 6.81969 19.75 7.00969 19.75C7.19969 19.75 7.38969 19.68 7.53969 19.53L9.53969 17.53C9.82969 17.24 9.82969 16.76 9.53969 16.47L7.53969 14.47H7.52969Z" fill="#0044FF"/>
</svg>
