<svg width="24" height="24" viewBox="0 0 24 24" fill="none" xmlns="http://www.w3.org/2000/svg">
<path opacity="0.5" d="M2.64386 1.2703C2.3298 1.35936 2.06261 1.79998 2.13292 2.10467C2.21261 2.45623 2.22198 2.46092 5.43761 4.87498C7.18136 6.18279 8.65792 7.28436 8.72355 7.31717C8.81261 7.36873 9.15948 7.38748 10.2985 7.39686L11.7657 7.41092L13.1017 9.11717C14.0767 10.3594 14.4798 10.8375 14.597 10.8937C14.8032 10.9922 15.122 10.9875 15.3142 10.8844C15.3939 10.8422 16.5282 9.68436 17.836 8.32029C19.1439 6.95154 20.236 5.81248 20.2595 5.78904C20.2923 5.75623 20.297 5.84529 20.2782 6.05623C20.236 6.49217 20.311 6.75467 20.5314 6.95154C20.8126 7.20936 21.2298 7.21873 21.5345 6.97967C21.797 6.77342 21.8064 6.70779 21.8439 5.16092C21.8626 4.37342 21.8579 3.66561 21.8392 3.58592C21.7876 3.40779 21.5907 3.19686 21.4032 3.11717C21.2954 3.07029 20.8501 3.05154 19.7485 3.03748C18.2907 3.02342 18.2392 3.02811 18.1079 3.12186C17.9439 3.23904 17.7657 3.58123 17.7657 3.77342C17.7657 3.99373 17.9532 4.32186 18.1407 4.42967C18.2673 4.49998 18.4173 4.52811 18.7876 4.54686L19.2657 4.57029L17.1564 6.77342C15.9985 7.98279 15.0329 8.97654 15.0142 8.97654C14.9907 8.97186 14.4564 8.31092 13.8189 7.49998C13.0735 6.54842 12.6048 5.99529 12.5064 5.93904C12.3704 5.86873 12.1923 5.85936 10.847 5.85936H9.3423L6.3048 3.58123C4.63605 2.32967 3.20167 1.28436 3.12198 1.26092C2.94855 1.20936 2.84073 1.21404 2.64386 1.2703Z" fill="#7A8399"/>
<path d="M2.09541 8.12812C1.8376 8.22187 1.60791 8.39062 1.47197 8.5875C1.20947 8.9625 1.21885 8.67656 1.21885 15.4219C1.21885 22.5047 1.18603 21.9609 1.6126 22.3875C1.98291 22.7578 2.10947 22.7812 3.53916 22.7812C4.96884 22.7812 5.09541 22.7578 5.46572 22.3875C5.89228 21.9609 5.85947 22.5047 5.85947 15.4219C5.85947 8.44687 5.88291 8.89219 5.51728 8.49844C5.14228 8.09062 5.12822 8.08594 3.60947 8.07656C2.56885 8.06719 2.23603 8.07656 2.09541 8.12812Z" fill="#7A8399"/>
<path d="M7.70623 11.2172C7.4578 11.3109 7.23748 11.4891 7.07342 11.7328L6.91405 11.9672L6.89998 16.8844C6.89061 21.5906 6.8953 21.8109 6.97498 21.9984C7.10155 22.2844 7.29373 22.4859 7.56561 22.6312L7.80467 22.7578L9.05623 22.7719C10.0781 22.7859 10.3594 22.7766 10.5562 22.7156C10.9265 22.6078 11.175 22.4016 11.3437 22.0641L11.4844 21.7734L11.475 16.8984L11.4609 12.0234L11.3578 11.8359C11.2265 11.5875 10.9922 11.3719 10.7344 11.2547C10.5375 11.1656 10.4344 11.1562 9.18748 11.1609C8.2828 11.1609 7.80467 11.1797 7.70623 11.2172Z" fill="#7A8399"/>
<path opacity="0.5" d="M18.8531 11.2781C18.5906 11.4094 18.4312 11.5734 18.2672 11.8781L18.164 12.0703L18.15 16.8469C18.1359 22.3219 18.1125 21.9609 18.5343 22.3828C18.9047 22.7578 19.0265 22.7812 20.4609 22.7812C21.8953 22.7812 22.0172 22.7578 22.3875 22.3828C22.8093 21.9609 22.7859 22.3219 22.7718 16.8469L22.7578 12.0703L22.6547 11.8781C22.4906 11.5734 22.3312 11.4094 22.0687 11.2781L21.825 11.1562H20.4609H19.0968L18.8531 11.2781Z" fill="#7A8399"/>
<path opacity="0.5" d="M13.3781 14.2875C13.0031 14.4188 12.7828 14.625 12.6094 15.0094C12.5203 15.2016 12.5156 15.3328 12.5156 18.4922V21.7734L12.6281 22.0078C12.7641 22.3031 12.9891 22.5328 13.2656 22.6594C13.4625 22.7531 13.5563 22.7578 14.8359 22.7578H16.1953L16.4344 22.6313C16.7063 22.4906 16.8938 22.2891 17.0203 22.0078C17.1 21.8344 17.1094 21.6141 17.1094 18.4875V15.1594L16.9875 14.9156C16.8563 14.6531 16.6922 14.4938 16.3875 14.3297C16.2047 14.2313 16.1344 14.2266 14.9062 14.2125C13.7672 14.2031 13.5891 14.2125 13.3781 14.2875Z" fill="#7A8399"/>
</svg>
