<svg width="24" height="24" viewBox="0 0 24 24" fill="none" xmlns="http://www.w3.org/2000/svg">
<path d="M9 15.25H5C4.31 15.25 3.75 14.69 3.75 14V8C3.75 7.31 4.31 6.75 5 6.75H18C18.41 6.75 18.75 6.41 18.75 6C18.75 5.59 18.41 5.25 18 5.25H5C3.48 5.25 2.25 6.48 2.25 8V14C2.25 15.52 3.48 16.75 5 16.75H9C9.41 16.75 9.75 16.41 9.75 16C9.75 15.59 9.41 15.25 9 15.25Z" fill="#0044FF"/>
<path d="M10 12.25H7C6.59 12.25 6.25 12.59 6.25 13C6.25 13.41 6.59 13.75 7 13.75H10C10.41 13.75 10.75 13.41 10.75 13C10.75 12.59 10.41 12.25 10 12.25Z" fill="#0044FF"/>
<path d="M7 8.25C6.59 8.25 6.25 8.59 6.25 9C6.25 9.41 6.59 9.75 7 9.75H14C14.41 9.75 14.75 9.41 14.75 9C14.75 8.59 14.41 8.25 14 8.25H7Z" fill="#0044FF"/>
<path d="M21.0299 8.96998C19.9599 7.89998 18.0799 8.02998 16.8599 9.25998L12.4599 13.66C11.8799 14.24 11.5299 14.98 11.4599 15.74L11.2599 17.94C11.2399 18.16 11.3199 18.38 11.4799 18.54C11.6199 18.68 11.8099 18.76 12.0099 18.76C12.0299 18.76 12.0599 18.76 12.0799 18.76L14.2799 18.56C15.0399 18.49 15.7799 18.13 16.3599 17.56L20.7599 13.16C21.9899 11.93 22.1199 10.06 21.0499 8.98998L21.0299 8.96998ZM15.2899 16.48C14.9599 16.81 14.5399 17.01 14.1399 17.05L12.8399 17.17L12.9599 15.87C12.9999 15.46 13.2099 15.04 13.5299 14.72L16.5499 11.7L18.3199 13.47L15.2999 16.49L15.2899 16.48ZM19.6899 12.08L19.3699 12.4L17.5999 10.63L17.9199 10.31C18.2999 9.92998 18.7799 9.73998 19.2099 9.73998C19.5099 9.73998 19.7799 9.82998 19.9699 10.03C20.4499 10.51 20.3199 11.45 19.6799 12.08H19.6899Z" fill="#0044FF"/>
</svg>
