<svg width="25" height="24" viewBox="0 0 25 24" fill="none" xmlns="http://www.w3.org/2000/svg">
<path d="M18.1493 6.34989C17.3111 5.50416 16.2937 4.8575 15.1721 4.45768C14.0505 4.05786 12.8534 3.91508 11.6693 4.03989C7.99929 4.40989 4.97929 7.38989 4.56929 11.0599C4.01929 15.9099 7.76929 19.9999 12.4993 19.9999C14.0094 19.9999 15.4885 19.5714 16.7648 18.7642C18.0411 17.957 19.0621 16.8043 19.7093 15.4399C20.0293 14.7699 19.5493 13.9999 18.8093 13.9999C18.4393 13.9999 18.0893 14.1999 17.9293 14.5299C17.3487 15.7789 16.3556 16.7899 15.1172 17.3927C13.8788 17.9955 12.4705 18.1534 11.1293 17.8399C8.90929 17.3499 7.11929 15.5399 6.64929 13.3199C6.45172 12.4422 6.45401 11.5312 6.65598 10.6545C6.85796 9.77775 7.25445 8.95764 7.81614 8.25481C8.37783 7.55198 9.09033 6.98442 9.90096 6.59411C10.7116 6.20379 11.5996 6.00071 12.4993 5.99989C14.1593 5.99989 15.6393 6.68989 16.7193 7.77989L15.2093 9.28989C14.5793 9.91989 15.0193 10.9999 15.9093 10.9999H19.4993C20.0493 10.9999 20.4993 10.5499 20.4993 9.99989V6.40989C20.4993 5.51989 19.4193 5.06989 18.7893 5.69989L18.1493 6.34989Z" fill="#1A1A33"/>
</svg>
