<svg width="24" height="24" viewBox="0 0 24 24" fill="#DFE0E6" xmlns="http://www.w3.org/2000/svg">
<path d="M10.6383 0.85075C10.4644 0.931915 10.2828 1.12517 10.2518 1.25657C10.2441 1.30296 10.2287 1.91363 10.2209 2.61706C10.2016 3.95435 10.1861 4.09735 9.99675 4.68483C9.8924 5.00949 9.66823 5.4617 9.45952 5.7709C9.24694 6.08783 8.66333 6.66758 8.33094 6.88789L8.07198 7.06181L8.06812 12.0167V16.9717L8.46621 17.2616C8.90296 17.5862 9.34743 17.822 9.73007 17.9302C9.96583 17.9959 10.2132 17.9998 13.8463 17.9998C18.1906 17.9998 17.9007 18.0191 18.5384 17.706C19.1375 17.4123 19.6515 16.7939 19.8332 16.1639C19.8834 15.9861 20.9231 9.42719 20.9927 8.85131C21.0236 8.59622 20.954 8.0899 20.8458 7.7923C20.7144 7.43672 20.5289 7.14297 20.2583 6.87243C19.9646 6.58255 19.6863 6.41249 19.2496 6.25402L18.9094 6.13421L16.3315 6.12261L13.7497 6.11102L13.8502 5.91004C14.1478 5.32642 14.3101 4.55729 14.3101 3.71858C14.3062 3.16202 14.2985 3.09632 14.2019 2.81031C13.9275 2.02185 13.3825 1.42664 12.6172 1.07105C12.2114 0.88167 11.9177 0.81983 11.3147 0.79664C10.8548 0.781179 10.7736 0.785046 10.6383 0.85075Z"/>
<path d="M2.86214 7.0192C2.51429 7.13129 2.25533 7.36319 2.09687 7.70331L2.00024 7.91975L2.00797 12.2447L2.01957 16.5696L2.11233 16.759C2.22441 16.9909 2.44085 17.2112 2.66502 17.331C2.83122 17.4199 2.84668 17.4199 4.22262 17.4199C5.59083 17.4199 5.61789 17.4199 5.77635 17.331C6.03531 17.1958 6.2015 17.0257 6.32905 16.7745L6.445 16.5387V12.2408C6.445 7.4057 6.46432 7.74582 6.14739 7.39024C6.05077 7.28202 5.88071 7.14675 5.77249 7.08877L5.57537 6.98442L4.29992 6.97669C3.32207 6.96896 2.98582 6.98055 2.86214 7.0192Z" />
</svg>
