<svg width="21" height="20" viewBox="0 0 21 20" fill="none" xmlns="http://www.w3.org/2000/svg">
<path d="M18.4387 5.7949C18.2043 5.56056 17.8864 5.42892 17.555 5.42892C17.2235 5.42892 16.9056 5.56056 16.6712 5.7949L10.4837 11.9824L4.29621 5.7949C4.06045 5.5672 3.7447 5.44121 3.41695 5.44406C3.08921 5.44691 2.77569 5.57837 2.54393 5.81013C2.31217 6.04189 2.18071 6.3554 2.17786 6.68315C2.17502 7.01089 2.30101 7.32665 2.52871 7.5624L9.59996 14.6337C9.83436 14.868 10.1522 14.9996 10.4837 14.9996C10.8152 14.9996 11.133 14.868 11.3675 14.6337L18.4387 7.5624C18.673 7.32799 18.8047 7.01011 18.8047 6.67865C18.8047 6.3472 18.673 6.02931 18.4387 5.7949Z" fill="#1A1A33"/>
</svg>
