<svg width="24" height="24" viewBox="0 0 24 24" fill="none" xmlns="http://www.w3.org/2000/svg">
<path d="M8.48438 3.6375C8.19375 3.74531 7.92188 3.94688 7.72969 4.20938C7.64063 4.33125 6.60938 5.79375 5.44219 7.4625L3.31875 10.5H1.90781C0.576563 10.5 0.482813 10.5047 0.3375 10.5938C0.1125 10.7344 0 10.9453 0 11.25C0 11.5547 0.1125 11.7656 0.3375 11.9063C0.492188 12 0.6 12 12 12C23.4 12 23.5078 12 23.6625 11.9063C23.8875 11.7656 24 11.5547 24 11.25C24 10.9453 23.8875 10.7344 23.6625 10.5938C23.5172 10.5047 23.4234 10.5 22.0922 10.5H20.6813L18.4594 7.32656C17.2406 5.58281 16.1625 4.07344 16.0641 3.97969C15.7641 3.68438 15.5109 3.58594 15.0234 3.58594C14.55 3.58594 14.3063 3.67031 14.0109 3.92813C13.9219 4.00781 13.4391 4.68281 12.9422 5.43281C12.4406 6.18281 12.0188 6.79688 12 6.79688C11.9813 6.79688 11.5594 6.18281 11.0578 5.43281C10.5609 4.68281 10.0781 4.00781 9.98906 3.92813C9.9 3.84844 9.73125 3.74063 9.61406 3.68906C9.32344 3.55781 8.76562 3.53438 8.48438 3.6375Z" fill="#7A8399"/>
<path opacity="0.5" d="M6.2437 13.5938C5.09526 13.8985 4.13901 14.8594 3.8437 16.0125C3.71714 16.5047 3.71714 17.2454 3.8437 17.7375C4.13901 18.9 5.09995 19.861 6.26245 20.1563C6.51089 20.2219 6.78276 20.25 7.12495 20.25C7.7437 20.25 8.19839 20.1422 8.73276 19.8657C9.45933 19.4907 10.1156 18.7032 10.364 17.9063L10.4437 17.6485H12H13.5562L13.6359 17.9063C13.9687 18.9797 14.9156 19.875 16.0125 20.1563C16.5046 20.2829 17.2453 20.2829 17.7375 20.1563C18.9 19.861 19.8609 18.9 20.1562 17.7375C20.2828 17.2454 20.2828 16.5047 20.1562 16.0125C19.8609 14.85 18.9 13.8891 17.7375 13.5938C17.2453 13.4672 16.5046 13.4672 16.0125 13.5938C14.9156 13.875 13.9687 14.7704 13.6359 15.8438L13.5562 16.1016H12H10.4437L10.364 15.8438C10.0312 14.7704 9.08433 13.875 7.98745 13.5938C7.50464 13.4672 6.72183 13.4719 6.2437 13.5938Z" fill="#7A8399"/>
</svg>
