<svg width="24" height="24" viewBox="0 0 24 24" fill="none" xmlns="http://www.w3.org/2000/svg">
<path fill-rule="evenodd" clip-rule="evenodd" d="M12.2048 19.8C11.4237 18.8392 10.9982 17.6382 11 16.4C11 14.9304 11.5872 13.5976 12.54 12.624C9.49383 12.2705 6.41216 12.8516 3.704 14.2904C3.2704 14.5208 3 14.9712 3 15.4616V18.4C3 19.1728 3.6272 19.8 4.4 19.8H12.2048ZM10.8 3C9.68609 3 8.6178 3.4425 7.83015 4.23015C7.0425 5.0178 6.6 6.08609 6.6 7.2C6.6 8.31391 7.0425 9.3822 7.83015 10.1698C8.6178 10.9575 9.68609 11.4 10.8 11.4C11.9139 11.4 12.9822 10.9575 13.7698 10.1698C14.5575 9.3822 15 8.31391 15 7.2C15 6.08609 14.5575 5.0178 13.7698 4.23015C12.9822 3.4425 11.9139 3 10.8 3Z" fill="#7A8399"/>
<path fill-rule="evenodd" clip-rule="evenodd" d="M16.4 13C15.9536 13 15.5114 13.0879 15.0989 13.2588C14.6864 13.4297 14.3116 13.6801 13.9959 13.9958C13.6802 14.3115 13.4297 14.6864 13.2589 15.0989C13.088 15.5114 13 15.9535 13 16.4C13 16.8465 13.088 17.2886 13.2589 17.7011C13.4297 18.1136 13.6802 18.4884 13.9959 18.8042C14.3116 19.1199 14.6864 19.3703 15.0989 19.5412C15.5114 19.712 15.9536 19.8 16.4 19.8C17.3018 19.8 18.1666 19.4418 18.8042 18.8042C19.4418 18.1665 19.8 17.3017 19.8 16.4C19.8 15.4983 19.4418 14.6334 18.8042 13.9958C18.1666 13.3582 17.3018 13 16.4 13ZM11.8 16.4C11.8 15.18 12.2847 14.01 13.1474 13.1473C14.01 12.2846 15.1801 11.8 16.4 11.8C17.62 11.8 18.7901 12.2846 19.6527 13.1473C20.5154 14.01 21 15.18 21 16.4C21 17.62 20.5154 18.79 19.6527 19.6527C18.7901 20.5153 17.62 21 16.4 21C15.1801 21 14.01 20.5153 13.1474 19.6527C12.2847 18.79 11.8 17.62 11.8 16.4Z" fill="#7A8399"/>
<path d="M14.3999 16.6C14.3999 16.2686 14.6685 16 14.9999 16H17.7999C18.1313 16 18.3999 16.2686 18.3999 16.6C18.3999 16.9314 18.1313 17.2 17.7999 17.2H14.9999C14.6685 17.2 14.3999 16.9314 14.3999 16.6Z" fill="#7A8399"/>
</svg>
