<svg width="24" height="24" fill="none" xmlns="http://www.w3.org/2000/svg"><path fill-rule="evenodd" clip-rule="evenodd" d="M12.205 19.8A5.378 5.378 0 0111 16.4a5.38 5.38 0 011.54-3.776 15.118 15.118 0 00-8.836 1.666c-.434.23-.704.681-.704 1.172V18.4a1.4 1.4 0 001.4 1.4h7.805zM10.8 3a4.2 4.2 0 100 8.4 4.2 4.2 0 000-8.4z" fill="#7A8399"/><path fill-rule="evenodd" clip-rule="evenodd" d="M16.4 13a3.4 3.4 0 100 6.8 3.4 3.4 0 000-6.8zm-4.6 3.4a4.6 4.6 0 119.2 0 4.6 4.6 0 01-9.2 0z" fill="#7A8399"/><path fill-rule="evenodd" clip-rule="evenodd" d="M18.304 15.064a.6.6 0 01.098.843l-1.532 1.931a.599.599 0 01-.894.052l-1.2-1.2a.6.6 0 01.848-.848l.724.724 1.114-1.404a.6.6 0 01.842-.098z" fill="#7A8399"/></svg>