<svg width="95" height="40" fill="none" xmlns="http://www.w3.org/2000/svg"><g clip-path="url(#clip0_4009_2692)"><path d="M45.386 3.136c-2.319 0-3.403 1.518-3.403 3.817v7.85c0 2.299 1.084 3.817 3.403 3.817 2.341 0 3.425-1.518 3.425-3.817v-1.887h-1.604v1.974c0 1.366-.541 2.19-1.777 2.19-1.214 0-1.777-.824-1.777-2.19V6.866c0-1.366.563-2.19 1.777-2.19 1.236 0 1.777.824 1.777 2.19v1.453h1.604V6.953c0-2.3-1.084-3.817-3.425-3.817zm9.286.152h-3.381v15.18h1.69v-6.484h1.193c1.409 0 2.21.542 2.21 2.255v2.386c0 1.019.088 1.41.283 1.843h1.712c-.282-.52-.303-1.15-.303-1.822v-2.363c0-1.627-.52-2.755-1.908-3.167 1.3-.412 1.886-1.453 1.886-3.122V6.757c0-2.255-.997-3.47-3.382-3.47zm-.433 7.156h-1.257V4.827h1.647c1.257 0 1.756.716 1.756 2.082v1.453c0 1.648-.802 2.082-2.146 2.082zm9.004 2.58v5.444h1.67v-5.443l3.229-9.737h-1.604l-2.385 7.46-2.362-7.46h-1.756l3.208 9.737zm10.37-9.736h-3.316v15.18h1.69v-5.985h1.496c2.406 0 3.533-1.258 3.533-3.665V6.996c0-2.299-1.019-3.708-3.403-3.708zm-.13 7.677h-1.496V4.827h1.626c1.235 0 1.734.694 1.734 2.082v2.017c0 1.453-.607 2.039-1.864 2.039zm8.072 7.503h1.69V4.828h2.797v-1.54H78.76v1.54h2.796v13.64zm6.468-11.515v7.85c0 2.299 1.149 3.817 3.468 3.817 2.341 0 3.49-1.518 3.49-3.817v-7.85c0-2.321-1.149-3.817-3.49-3.817-2.319 0-3.468 1.496-3.468 3.817zm1.67 7.937V6.866c0-1.366.584-2.19 1.798-2.19 1.236 0 1.8.824 1.8 2.19v8.024c0 1.388-.564 2.19-1.8 2.19-1.214 0-1.799-.802-1.799-2.19z" fill="#1A1A33"/><path fill-rule="evenodd" clip-rule="evenodd" d="M28.407 29.817c.052 2.72-.802 5.044-2.555 6.974-1.154 1.308-2.774 2.23-4.88 2.77-1.127.293-2.44.439-3.937.439-2.783 0-5.082-.57-6.914-1.718-1.524-.936-2.73-2.208-3.62-3.815a12.173 12.173 0 01-.984-2.344c2.224.353 4.643.003 6.92-.72.366.851.84 1.538 1.427 2.062.855.774 1.832 1.14 2.933 1.096 1.55-.044 2.784-.672 3.708-1.9.476-.607.714-1.462.714-2.588 0-.953-.307-1.901-.921-2.846a102.024 102.024 0 005.234-3.97c.263.328.505.656.725.983.458.665.82 1.279 1.092 1.842.678 1.389 1.03 2.631 1.058 3.735zm7.326-15.732l.374.723 1.187-1.223-.234-.453c1.14-.896 1.934-1.735 1.786-2.873-1.371.122-2.191.945-3.003 2.06l-.584-.094-1.186 1.223.927.148c-2.667 2.367-7 5.124-11.633 7.367a30.79 30.79 0 00-1.17-1.022c-.529-.453-1.621-1.25-3.277-2.397-1.4-.95-2.457-1.784-3.162-2.493-1.859-1.842-2.784-3.662-2.784-5.446 0-1.14.274-2.098.828-2.865.679-.958 1.665-1.433 2.969-1.433 1.233 0 2.175.322 2.827.958 2.57 1.757 1.049 5.054 8.465 3.405-.176-1.703-.696-3.917-1.56-5.218a8.897 8.897 0 00-3.399-3.048C21.307.468 19.14 0 16.612 0c-2.633 0-4.835.548-6.615 1.652-2.88 1.828-4.316 4.518-4.316 8.07 0 1.974.529 3.801 1.577 5.483.978 1.498 2.642 3.194 4.994 5.08 1.73 1.363 3.19 2.514 4.385 3.454-3.612 1.209-7.008 1.836-9.53 1.448-1.605-.248-2.677-1.122-2.439-3.136.173-1.466 1.001-3.154 2.203-4.423a15.556 15.556 0 01-1.277-1.676l-.016-.026a12.42 12.42 0 01-.388-.667c-8.822 6.33-5.924 17.085 5.414 15.102 9.145-1.6 21.53-12.665 25.129-16.276z" fill="#04F"/><path d="M49.593 21.384c1.155 0 2.007.343 2.556 1.03.549.686.823 1.607.823 2.763v.412H51.37v-.499c0-.693-.137-1.228-.412-1.604-.274-.376-.715-.563-1.321-.563-.607 0-1.047.188-1.322.564-.274.375-.411.903-.411 1.582 0 .563.126 1.055.379 1.474.252.419.567.805.942 1.16.376.353.784.7 1.224 1.04.438.337.848.71 1.224 1.116.376.405.69.863.943 1.376.252.513.379 1.124.379 1.832 0 1.156-.278 2.077-.834 2.764-.556.686-1.42 1.03-2.589 1.03-1.17 0-2.03-.344-2.578-1.03-.55-.687-.824-1.608-.824-2.764V32.2h1.582v.954c0 .693.144 1.228.433 1.603.289.377.737.564 1.343.564.607 0 1.055-.188 1.344-.563.288-.376.433-.91.433-1.604 0-.564-.126-1.052-.38-1.463a5.609 5.609 0 00-.941-1.15c-.376-.353-.78-.7-1.214-1.04a10.45 10.45 0 01-1.213-1.116 5.732 5.732 0 01-.942-1.376c-.253-.513-.38-1.124-.38-1.832 0-1.17.275-2.095.824-2.775.549-.679 1.394-1.018 2.535-1.018zm9.434.152c1.198 0 2.065.328 2.6.986.534.657.801 1.564.801 2.72v1.82c0 1.214-.285 2.129-.856 2.743-.57.614-1.462.92-2.675.92h-1.495v5.983h-1.69V21.536h3.315zm-.13 7.673c.635 0 1.105-.156 1.408-.466.303-.31.455-.835.455-1.572v-2.015c0-.694-.134-1.214-.401-1.561s-.711-.52-1.332-.52h-1.625v6.134h1.495zm7.527 4.443l-.585 3.056h-1.56l2.904-15.172h2.448l2.903 15.172h-1.69l-.585-3.056h-3.835zm.217-1.452h3.38l-1.712-8.757-1.668 8.757zM78.35 21.384c1.17 0 2.033.347 2.589 1.04.556.694.834 1.619.834 2.775v1.365H80.17v-1.452c0-.693-.141-1.232-.423-1.615-.282-.383-.733-.574-1.354-.574-.606 0-1.054.191-1.343.574-.289.383-.433.922-.433 1.615v8.02c0 .693.144 1.232.433 1.615.289.383.737.574 1.343.574.621 0 1.072-.191 1.354-.574.282-.383.423-.922.423-1.615V31.16h1.603v1.886c0 1.156-.278 2.081-.834 2.775-.556.693-1.42 1.04-2.59 1.04-1.154 0-2.01-.347-2.567-1.04-.556-.694-.834-1.619-.834-2.775V25.2c0-.578.07-1.102.206-1.572.138-.47.347-.87.629-1.203a2.8 2.8 0 011.061-.77c.426-.18.928-.27 1.506-.27zm11.6 6.871v1.517h-3.704v5.398h4.55v1.538h-6.24V21.536h6.24v1.539h-4.55v5.18h3.704z" fill="#1A1A33"/></g><defs><clipPath id="clip0_4009_2692"><path fill="#fff" d="M0 0h95v40H0z"/></clipPath></defs></svg>