<svg width="17" height="17" fill="none" xmlns="http://www.w3.org/2000/svg"><path d="M8.667 15.611c3.826 0 6.944-3.118 6.944-6.944 0-3.827-3.118-6.945-6.944-6.945-3.827 0-6.945 3.118-6.945 6.945 0 3.826 3.118 6.944 6.945 6.944zm.52-4.167a.524.524 0 01-.52.521.525.525 0 01-.521-.52V7.971c0-.284.236-.52.52-.52.285 0 .521.236.521.52v3.472zm-1.16-5.819a.717.717 0 01.147-.23.802.802 0 01.229-.145.691.691 0 01.264-.056c.09 0 .18.021.264.056.083.035.16.083.229.146.062.07.11.139.146.229a.691.691 0 01.055.264c0 .09-.02.18-.055.264a.802.802 0 01-.146.229.802.802 0 01-.23.146.695.695 0 01-.527 0 .802.802 0 01-.23-.146.802.802 0 01-.145-.23.691.691 0 01-.056-.263c0-.09.021-.18.056-.264z" fill="#DFE0E6"/></svg>