<svg aria-hidden="true" xmlns="http://www.w3.org/2000/svg" width="207.201" height="45.597" viewBox="0 0 207.201 45.597">
    <path class="letter"
          d="M22.847 19.871a10.812 10.812 0 0 0-3.335-3.24 9.5 9.5 0 0 0-4.9-1.112 7.725 7.725 0 0 0-5.601 2.035 7.337 7.337 0 0 0-2.1 5.534 8.151 8.151 0 0 0 .568 3.1 6.958 6.958 0 0 0 1.585 2.389 7.049 7.049 0 0 0 2.43 1.537 8.654 8.654 0 0 0 3.122.544 9.828 9.828 0 0 0 4.9-1.088 9.536 9.536 0 0 0 3.284-3.218l5.392 3.027a13.223 13.223 0 0 1-5.369 5.582 16.711 16.711 0 0 1-8.112 1.845 17.6 17.6 0 0 1-5.865-.946 13.549 13.549 0 0 1-4.659-2.72 12.437 12.437 0 0 1-3.075-4.326A14.2 14.2 0 0 1 0 23.088a13.779 13.779 0 0 1 1.135-5.7 12.611 12.611 0 0 1 3.122-4.3 14.168 14.168 0 0 1 4.659-2.743 16.865 16.865 0 0 1 5.794-.97q9.46 0 13.528 7.426zM32.259 9.986h26.773v26.158h-7V16.23h-12.82v19.914h-6.953zM70.194 23.088a8.474 8.474 0 0 0 .591 3.24 7.05 7.05 0 0 0 1.656 2.46 7.42 7.42 0 0 0 2.46 1.561 8.327 8.327 0 0 0 3.051.544 8.385 8.385 0 0 0 3.027-.544 7.12 7.12 0 0 0 2.46-1.561 7.22 7.22 0 0 0 1.632-2.46 8.474 8.474 0 0 0 .591-3.24 8.474 8.474 0 0 0-.591-3.24 7.219 7.219 0 0 0-1.632-2.46 7.119 7.119 0 0 0-2.46-1.561 8.385 8.385 0 0 0-3.027-.544 8.327 8.327 0 0 0-3.051.544 7.42 7.42 0 0 0-2.46 1.561 7.05 7.05 0 0 0-1.656 2.46 8.474 8.474 0 0 0-.591 3.24zm22.468 0a12.856 12.856 0 0 1-1.206 5.605 13.555 13.555 0 0 1-3.216 4.328 14.551 14.551 0 0 1-4.683 2.793 15.955 15.955 0 0 1-5.6.993 15.956 15.956 0 0 1-5.607-.993 14.558 14.558 0 0 1-4.683-2.791 13.565 13.565 0 0 1-3.217-4.33 12.861 12.861 0 0 1-1.206-5.605 12.862 12.862 0 0 1 1.206-5.605 13.566 13.566 0 0 1 3.216-4.328 14.559 14.559 0 0 1 4.684-2.791 15.956 15.956 0 0 1 5.605-.993 15.955 15.955 0 0 1 5.6.993 14.552 14.552 0 0 1 4.683 2.791 13.556 13.556 0 0 1 3.216 4.328 12.856 12.856 0 0 1 1.209 5.605zM112.341 9.986a12.32 12.32 0 0 1 4.375.757 10.112 10.112 0 0 1 3.449 2.132 9.878 9.878 0 0 1 2.27 3.287 10.56 10.56 0 0 1 .828 4.233 10.392 10.392 0 0 1-.828 4.21 9.43 9.43 0 0 1-2.27 3.216 9.912 9.912 0 0 1-3.453 2.034 13.059 13.059 0 0 1-4.375.71h-8.515v5.582h-6.953V9.986zm-8.515 14.238h8.231a4.7 4.7 0 0 0 3.027-.946 3.472 3.472 0 0 0 1.183-2.885 3.849 3.849 0 0 0-1.183-2.98 4.3 4.3 0 0 0-3.027-1.088h-8.231zM153.209 9.986v6.244h-10.168v19.914h-7V16.23h-10.17V9.986z" fill="#fff"></path>
    <path d="M199.741.808a7.507 7.507 0 0 1 6.653 6.652 145.958 145.958 0 0 1 0 30.676 7.507 7.507 0 0 1-6.653 6.653 145.972 145.972 0 0 1-30.676 0 7.507 7.507 0 0 1-6.652-6.652 145.958 145.958 0 0 1 0-30.676 7.507 7.507 0 0 1 6.652-6.652 145.976 145.976 0 0 1 30.676-.001z"
          fill="#ff1700" fill-rule="evenodd"></path>
    <path d="M194.419 11.636a3.557 3.557 0 0 1 3.555-3.491 3.557 3.557 0 0 1 3.556 3.556 3.557 3.557 0 0 1-3.556 3.556 3.558 3.558 0 0 1-3.555-3.493 3.437 3.437 0 0 1-.042.484l-1.544 9.954a3.557 3.557 0 0 1 4.025-2.785 3.557 3.557 0 0 1 2.968 4.058l-1.7 10.964a3.556 3.556 0 0 1-4.058 2.968 3.558 3.558 0 0 1-3.006-3.341 3.557 3.557 0 0 1-3.552 3.389 3.557 3.557 0 0 1-3.555-3.556 3.557 3.557 0 0 1 3.555-3.556 3.557 3.557 0 0 1 3.552 3.388 3.515 3.515 0 0 1 .039-.381l1.544-9.95a3.556 3.556 0 0 1-4.025 2.785 3.556 3.556 0 0 1-2.967-4.058l1.7-10.968a3.557 3.557 0 0 1 4.058-2.968 3.558 3.558 0 0 1 3.008 3.445zm-16.821.966a3.559 3.559 0 0 1-3.44 2.654 3.558 3.558 0 0 1-3.556-3.556 3.558 3.558 0 0 1 3.556-3.556 3.557 3.557 0 0 1 3.556 3.556c0 .064 0 .127-.005.19l.114-.734a3.556 3.556 0 0 1 4.058-2.968 3.557 3.557 0 0 1 2.968 4.058l-1.7 10.964a3.556 3.556 0 0 1-4.058 2.968 3.559 3.559 0 0 1-3-3.266 3.549 3.549 0 0 1-.042.562l-1.481 9.518a3.559 3.559 0 0 1 3.44-2.654 3.558 3.558 0 0 1 3.556 3.556 3.558 3.558 0 0 1-3.556 3.556 3.557 3.557 0 0 1-3.555-3.556v-.19l-.113.734a3.557 3.557 0 0 1-4.058 2.968 3.556 3.556 0 0 1-2.967-4.058l1.7-10.964a3.557 3.557 0 0 1 4.058-2.968 3.558 3.558 0 0 1 3 3.266 3.623 3.623 0 0 1 .043-.562z"
          fill="#fff" fill-rule="evenodd"></path>
</svg>
